<mxfile host="app.diagrams.net" agent="Mozilla/5.0 (Windows NT 10.0; Win64; x64) AppleWebKit/537.36 (KHTML, like Gecko) Chrome/139.0.0.0 Safari/537.36" version="28.2.3">
  <diagram name="第 1 页" id="LAbK3_v-kBbFvubEwJSo">
    <mxGraphModel dx="3473" dy="1820" grid="1" gridSize="10" guides="1" tooltips="1" connect="1" arrows="1" fold="1" page="1" pageScale="1" pageWidth="827" pageHeight="1169" math="0" shadow="0">
      <root>
        <mxCell id="0" />
        <mxCell id="1" parent="0" />
        <mxCell id="AfPHlgVxdCcqtdi9Rfbz-29" value="" style="shape=curlyBracket;whiteSpace=wrap;html=1;rounded=1;flipH=1;labelPosition=right;verticalLabelPosition=middle;align=left;verticalAlign=middle;strokeColor=#97D077;size=0.5;" vertex="1" parent="1">
          <mxGeometry x="1450" y="480" width="20" height="110" as="geometry" />
        </mxCell>
        <mxCell id="AfPHlgVxdCcqtdi9Rfbz-30" value="" style="rounded=0;whiteSpace=wrap;html=1;" vertex="1" parent="1">
          <mxGeometry x="1330" y="480" width="120" height="110" as="geometry" />
        </mxCell>
        <mxCell id="AfPHlgVxdCcqtdi9Rfbz-31" value="" style="rounded=0;whiteSpace=wrap;html=1;" vertex="1" parent="1">
          <mxGeometry x="1330" y="590" width="120" height="470" as="geometry" />
        </mxCell>
        <mxCell id="AfPHlgVxdCcqtdi9Rfbz-32" value="0x1000" style="text;html=1;align=center;verticalAlign=middle;whiteSpace=wrap;rounded=0;" vertex="1" parent="1">
          <mxGeometry x="1270" y="570" width="60" height="30" as="geometry" />
        </mxCell>
        <mxCell id="AfPHlgVxdCcqtdi9Rfbz-33" value="" style="rounded=0;whiteSpace=wrap;html=1;" vertex="1" parent="1">
          <mxGeometry x="1330" y="420" width="120" height="60" as="geometry" />
        </mxCell>
        <mxCell id="AfPHlgVxdCcqtdi9Rfbz-34" value="0x2000" style="text;html=1;align=center;verticalAlign=middle;whiteSpace=wrap;rounded=0;" vertex="1" parent="1">
          <mxGeometry x="1270" y="460" width="60" height="30" as="geometry" />
        </mxCell>
        <mxCell id="AfPHlgVxdCcqtdi9Rfbz-35" value="&lt;font style=&quot;color: rgb(255, 51, 51);&quot;&gt;低地址内存&lt;/font&gt;" style="text;html=1;align=center;verticalAlign=middle;whiteSpace=wrap;rounded=0;" vertex="1" parent="1">
          <mxGeometry x="1160" y="840" width="80" height="30" as="geometry" />
        </mxCell>
        <mxCell id="AfPHlgVxdCcqtdi9Rfbz-36" value="&lt;font style=&quot;color: rgb(255, 51, 51);&quot;&gt;高地址内存&lt;/font&gt;" style="text;html=1;align=center;verticalAlign=middle;whiteSpace=wrap;rounded=0;" vertex="1" parent="1">
          <mxGeometry x="1170" y="410" width="80" height="30" as="geometry" />
        </mxCell>
        <mxCell id="AfPHlgVxdCcqtdi9Rfbz-37" value="" style="endArrow=classic;html=1;rounded=0;entryX=1;entryY=1;entryDx=0;entryDy=0;" edge="1" parent="1" target="AfPHlgVxdCcqtdi9Rfbz-33">
          <mxGeometry width="50" height="50" relative="1" as="geometry">
            <mxPoint x="1510" y="480" as="sourcePoint" />
            <mxPoint x="1620" y="500" as="targetPoint" />
          </mxGeometry>
        </mxCell>
        <mxCell id="AfPHlgVxdCcqtdi9Rfbz-38" value="FP_a" style="text;html=1;align=center;verticalAlign=middle;whiteSpace=wrap;rounded=0;" vertex="1" parent="1">
          <mxGeometry x="1510" y="460" width="60" height="30" as="geometry" />
        </mxCell>
        <mxCell id="AfPHlgVxdCcqtdi9Rfbz-39" value="" style="endArrow=classic;html=1;rounded=0;entryX=1;entryY=1;entryDx=0;entryDy=0;" edge="1" parent="1">
          <mxGeometry width="50" height="50" relative="1" as="geometry">
            <mxPoint x="1510" y="590" as="sourcePoint" />
            <mxPoint x="1450" y="590" as="targetPoint" />
          </mxGeometry>
        </mxCell>
        <mxCell id="AfPHlgVxdCcqtdi9Rfbz-40" value="SP_a" style="text;html=1;align=center;verticalAlign=middle;whiteSpace=wrap;rounded=0;" vertex="1" parent="1">
          <mxGeometry x="1510" y="570" width="60" height="30" as="geometry" />
        </mxCell>
        <mxCell id="AfPHlgVxdCcqtdi9Rfbz-41" value="&lt;font style=&quot;color: rgb(151, 208, 119);&quot;&gt;函数a栈区&lt;/font&gt;" style="text;html=1;align=center;verticalAlign=middle;whiteSpace=wrap;rounded=0;" vertex="1" parent="1">
          <mxGeometry x="1460" y="520" width="80" height="30" as="geometry" />
        </mxCell>
        <mxCell id="AfPHlgVxdCcqtdi9Rfbz-42" value="" style="endArrow=classic;html=1;rounded=0;fillColor=#FF3333;strokeColor=#FF3333;" edge="1" parent="1">
          <mxGeometry width="50" height="50" relative="1" as="geometry">
            <mxPoint x="1460" y="764.5" as="sourcePoint" />
            <mxPoint x="1640" y="764.5" as="targetPoint" />
          </mxGeometry>
        </mxCell>
        <mxCell id="AfPHlgVxdCcqtdi9Rfbz-43" value="&lt;font style=&quot;color: rgb(255, 51, 51); font-size: 14px;&quot;&gt;sub sp,sp,#32&lt;/font&gt;" style="edgeLabel;html=1;align=center;verticalAlign=middle;resizable=0;points=[];" vertex="1" connectable="0" parent="AfPHlgVxdCcqtdi9Rfbz-42">
          <mxGeometry x="-0.5689" y="1" relative="1" as="geometry">
            <mxPoint x="51" y="-19" as="offset" />
          </mxGeometry>
        </mxCell>
        <mxCell id="AfPHlgVxdCcqtdi9Rfbz-44" value="" style="shape=curlyBracket;whiteSpace=wrap;html=1;rounded=1;flipH=1;labelPosition=right;verticalLabelPosition=middle;align=left;verticalAlign=middle;strokeColor=#97D077;size=0.5;" vertex="1" parent="1">
          <mxGeometry x="1910" y="480" width="20" height="110" as="geometry" />
        </mxCell>
        <mxCell id="AfPHlgVxdCcqtdi9Rfbz-45" value="" style="rounded=0;whiteSpace=wrap;html=1;" vertex="1" parent="1">
          <mxGeometry x="1790" y="480" width="120" height="110" as="geometry" />
        </mxCell>
        <mxCell id="AfPHlgVxdCcqtdi9Rfbz-46" value="" style="rounded=0;whiteSpace=wrap;html=1;" vertex="1" parent="1">
          <mxGeometry x="1790" y="940" width="120" height="120" as="geometry" />
        </mxCell>
        <mxCell id="AfPHlgVxdCcqtdi9Rfbz-47" value="" style="rounded=0;whiteSpace=wrap;html=1;" vertex="1" parent="1">
          <mxGeometry x="1790" y="420" width="120" height="60" as="geometry" />
        </mxCell>
        <mxCell id="AfPHlgVxdCcqtdi9Rfbz-48" value="" style="endArrow=classic;html=1;rounded=0;entryX=1;entryY=1;entryDx=0;entryDy=0;" edge="1" parent="1" target="AfPHlgVxdCcqtdi9Rfbz-47">
          <mxGeometry width="50" height="50" relative="1" as="geometry">
            <mxPoint x="1970" y="480" as="sourcePoint" />
            <mxPoint x="2080" y="500" as="targetPoint" />
          </mxGeometry>
        </mxCell>
        <mxCell id="AfPHlgVxdCcqtdi9Rfbz-49" value="FP_a" style="text;html=1;align=center;verticalAlign=middle;whiteSpace=wrap;rounded=0;" vertex="1" parent="1">
          <mxGeometry x="1970" y="460" width="60" height="30" as="geometry" />
        </mxCell>
        <mxCell id="AfPHlgVxdCcqtdi9Rfbz-50" value="" style="endArrow=classic;html=1;rounded=0;entryX=1;entryY=1;entryDx=0;entryDy=0;" edge="1" parent="1">
          <mxGeometry width="50" height="50" relative="1" as="geometry">
            <mxPoint x="1970" y="590" as="sourcePoint" />
            <mxPoint x="1910" y="590" as="targetPoint" />
          </mxGeometry>
        </mxCell>
        <mxCell id="AfPHlgVxdCcqtdi9Rfbz-51" value="SP_a" style="text;html=1;align=center;verticalAlign=middle;whiteSpace=wrap;rounded=0;" vertex="1" parent="1">
          <mxGeometry x="1970" y="570" width="60" height="30" as="geometry" />
        </mxCell>
        <mxCell id="AfPHlgVxdCcqtdi9Rfbz-52" value="&lt;font style=&quot;color: rgb(151, 208, 119);&quot;&gt;函数a栈区&lt;/font&gt;" style="text;html=1;align=center;verticalAlign=middle;whiteSpace=wrap;rounded=0;" vertex="1" parent="1">
          <mxGeometry x="1920" y="520" width="80" height="30" as="geometry" />
        </mxCell>
        <mxCell id="AfPHlgVxdCcqtdi9Rfbz-53" value="" style="rounded=0;whiteSpace=wrap;html=1;" vertex="1" parent="1">
          <mxGeometry x="1790" y="590" width="120" height="350" as="geometry" />
        </mxCell>
        <mxCell id="AfPHlgVxdCcqtdi9Rfbz-54" value="" style="shape=curlyBracket;whiteSpace=wrap;html=1;rounded=1;labelPosition=left;verticalLabelPosition=middle;align=right;verticalAlign=middle;strokeColor=#FFB570;" vertex="1" parent="1">
          <mxGeometry x="1770" y="590" width="20" height="350" as="geometry" />
        </mxCell>
        <mxCell id="AfPHlgVxdCcqtdi9Rfbz-55" value="&lt;font style=&quot;color: rgb(255, 181, 112); font-size: 14px;&quot;&gt;&lt;b&gt;32字节空间&lt;/b&gt;&lt;/font&gt;" style="text;html=1;align=center;verticalAlign=middle;whiteSpace=wrap;rounded=0;" vertex="1" parent="1">
          <mxGeometry x="1690" y="750" width="80" height="30" as="geometry" />
        </mxCell>
        <mxCell id="AfPHlgVxdCcqtdi9Rfbz-56" value="" style="endArrow=classic;html=1;rounded=0;" edge="1" parent="1">
          <mxGeometry width="50" height="50" relative="1" as="geometry">
            <mxPoint x="1700" y="940" as="sourcePoint" />
            <mxPoint x="1770" y="940" as="targetPoint" />
          </mxGeometry>
        </mxCell>
        <mxCell id="AfPHlgVxdCcqtdi9Rfbz-57" value="&lt;div&gt;&lt;span style=&quot;background-color: light-dark(#ffffff, var(--ge-dark-color, #121212)); color: light-dark(rgb(0, 0, 0), rgb(255, 255, 255));&quot;&gt;&lt;font style=&quot;font-size: 12px;&quot;&gt;0x1000-32&lt;/font&gt;&lt;/span&gt;&lt;/div&gt;&lt;div&gt;&lt;span style=&quot;font-family: quote-cjk-patch, Inter, system-ui, -apple-system, BlinkMacSystemFont, &amp;quot;Segoe UI&amp;quot;, Roboto, Oxygen, Ubuntu, Cantarell, &amp;quot;Open Sans&amp;quot;, &amp;quot;Helvetica Neue&amp;quot;, sans-serif; text-align: start; text-wrap-mode: wrap;&quot;&gt;&lt;font style=&quot;font-size: 8px;&quot;&gt;0xFE0&lt;/font&gt;&lt;/span&gt;&lt;span style=&quot;background-color: light-dark(#ffffff, var(--ge-dark-color, #121212)); color: light-dark(rgb(0, 0, 0), rgb(255, 255, 255));&quot;&gt;&lt;/span&gt;&lt;/div&gt;" style="edgeLabel;html=1;align=center;verticalAlign=middle;resizable=0;points=[];" vertex="1" connectable="0" parent="AfPHlgVxdCcqtdi9Rfbz-56">
          <mxGeometry x="-0.4114" y="2" relative="1" as="geometry">
            <mxPoint x="-61" y="2" as="offset" />
          </mxGeometry>
        </mxCell>
        <mxCell id="AfPHlgVxdCcqtdi9Rfbz-58" value="" style="endArrow=classic;html=1;rounded=0;entryX=1;entryY=1;entryDx=0;entryDy=0;" edge="1" parent="1">
          <mxGeometry width="50" height="50" relative="1" as="geometry">
            <mxPoint x="1970" y="940" as="sourcePoint" />
            <mxPoint x="1910" y="940" as="targetPoint" />
          </mxGeometry>
        </mxCell>
        <mxCell id="AfPHlgVxdCcqtdi9Rfbz-59" value="SP_b" style="text;html=1;align=center;verticalAlign=middle;whiteSpace=wrap;rounded=0;" vertex="1" parent="1">
          <mxGeometry x="1970" y="920" width="60" height="30" as="geometry" />
        </mxCell>
        <mxCell id="AfPHlgVxdCcqtdi9Rfbz-60" value="SP a-&amp;gt;b" style="text;html=1;align=center;verticalAlign=middle;whiteSpace=wrap;rounded=0;" vertex="1" parent="1">
          <mxGeometry x="1820" y="1160" width="60" height="30" as="geometry" />
        </mxCell>
        <mxCell id="AfPHlgVxdCcqtdi9Rfbz-61" value="" style="endArrow=classic;html=1;rounded=0;fillColor=#FF3333;strokeColor=#FF3333;" edge="1" parent="1">
          <mxGeometry width="50" height="50" relative="1" as="geometry">
            <mxPoint x="1997" y="764.5" as="sourcePoint" />
            <mxPoint x="2177" y="764.5" as="targetPoint" />
          </mxGeometry>
        </mxCell>
        <mxCell id="AfPHlgVxdCcqtdi9Rfbz-62" value="&lt;font color=&quot;#ff3333&quot;&gt;&lt;span style=&quot;font-size: 14px;&quot;&gt;stp x29,x30 [sp,#16]&lt;/span&gt;&lt;/font&gt;" style="edgeLabel;html=1;align=center;verticalAlign=middle;resizable=0;points=[];" vertex="1" connectable="0" parent="AfPHlgVxdCcqtdi9Rfbz-61">
          <mxGeometry x="-0.5689" y="1" relative="1" as="geometry">
            <mxPoint x="51" y="-19" as="offset" />
          </mxGeometry>
        </mxCell>
        <mxCell id="AfPHlgVxdCcqtdi9Rfbz-63" value="" style="shape=curlyBracket;whiteSpace=wrap;html=1;rounded=1;flipH=1;labelPosition=right;verticalLabelPosition=middle;align=left;verticalAlign=middle;strokeColor=#97D077;size=0.5;" vertex="1" parent="1">
          <mxGeometry x="2447" y="480" width="20" height="110" as="geometry" />
        </mxCell>
        <mxCell id="AfPHlgVxdCcqtdi9Rfbz-64" value="" style="rounded=0;whiteSpace=wrap;html=1;" vertex="1" parent="1">
          <mxGeometry x="2327" y="480" width="120" height="110" as="geometry" />
        </mxCell>
        <mxCell id="AfPHlgVxdCcqtdi9Rfbz-65" value="" style="rounded=0;whiteSpace=wrap;html=1;" vertex="1" parent="1">
          <mxGeometry x="2327" y="940" width="120" height="120" as="geometry" />
        </mxCell>
        <mxCell id="AfPHlgVxdCcqtdi9Rfbz-66" value="" style="rounded=0;whiteSpace=wrap;html=1;" vertex="1" parent="1">
          <mxGeometry x="2327" y="420" width="120" height="60" as="geometry" />
        </mxCell>
        <mxCell id="AfPHlgVxdCcqtdi9Rfbz-67" value="" style="endArrow=classic;html=1;rounded=0;entryX=1;entryY=1;entryDx=0;entryDy=0;" edge="1" parent="1" target="AfPHlgVxdCcqtdi9Rfbz-66">
          <mxGeometry width="50" height="50" relative="1" as="geometry">
            <mxPoint x="2507" y="480" as="sourcePoint" />
            <mxPoint x="2617" y="500" as="targetPoint" />
          </mxGeometry>
        </mxCell>
        <mxCell id="AfPHlgVxdCcqtdi9Rfbz-68" value="FP_a" style="text;html=1;align=center;verticalAlign=middle;whiteSpace=wrap;rounded=0;" vertex="1" parent="1">
          <mxGeometry x="2507" y="460" width="60" height="30" as="geometry" />
        </mxCell>
        <mxCell id="AfPHlgVxdCcqtdi9Rfbz-69" value="" style="endArrow=classic;html=1;rounded=0;entryX=1;entryY=1;entryDx=0;entryDy=0;" edge="1" parent="1">
          <mxGeometry width="50" height="50" relative="1" as="geometry">
            <mxPoint x="2507" y="590" as="sourcePoint" />
            <mxPoint x="2447" y="590" as="targetPoint" />
          </mxGeometry>
        </mxCell>
        <mxCell id="AfPHlgVxdCcqtdi9Rfbz-70" value="SP_a" style="text;html=1;align=center;verticalAlign=middle;whiteSpace=wrap;rounded=0;" vertex="1" parent="1">
          <mxGeometry x="2507" y="570" width="60" height="30" as="geometry" />
        </mxCell>
        <mxCell id="AfPHlgVxdCcqtdi9Rfbz-71" value="&lt;font style=&quot;color: rgb(151, 208, 119);&quot;&gt;函数a栈区&lt;/font&gt;" style="text;html=1;align=center;verticalAlign=middle;whiteSpace=wrap;rounded=0;" vertex="1" parent="1">
          <mxGeometry x="2457" y="520" width="80" height="30" as="geometry" />
        </mxCell>
        <mxCell id="AfPHlgVxdCcqtdi9Rfbz-72" value="" style="rounded=0;whiteSpace=wrap;html=1;" vertex="1" parent="1">
          <mxGeometry x="2327" y="590" width="120" height="87.5" as="geometry" />
        </mxCell>
        <mxCell id="AfPHlgVxdCcqtdi9Rfbz-73" value="" style="endArrow=classic;html=1;rounded=0;" edge="1" parent="1">
          <mxGeometry width="50" height="50" relative="1" as="geometry">
            <mxPoint x="2237" y="940" as="sourcePoint" />
            <mxPoint x="2307" y="940" as="targetPoint" />
          </mxGeometry>
        </mxCell>
        <mxCell id="AfPHlgVxdCcqtdi9Rfbz-74" value="&lt;div&gt;&lt;span style=&quot;background-color: light-dark(#ffffff, var(--ge-dark-color, #121212)); color: light-dark(rgb(0, 0, 0), rgb(255, 255, 255));&quot;&gt;&lt;font style=&quot;font-size: 12px;&quot;&gt;0x1000-32&lt;/font&gt;&lt;/span&gt;&lt;/div&gt;&lt;div&gt;&lt;span style=&quot;font-family: quote-cjk-patch, Inter, system-ui, -apple-system, BlinkMacSystemFont, &amp;quot;Segoe UI&amp;quot;, Roboto, Oxygen, Ubuntu, Cantarell, &amp;quot;Open Sans&amp;quot;, &amp;quot;Helvetica Neue&amp;quot;, sans-serif; text-align: start; text-wrap-mode: wrap;&quot;&gt;&lt;font style=&quot;font-size: 8px;&quot;&gt;0xFE0&lt;/font&gt;&lt;/span&gt;&lt;span style=&quot;background-color: light-dark(#ffffff, var(--ge-dark-color, #121212)); color: light-dark(rgb(0, 0, 0), rgb(255, 255, 255));&quot;&gt;&lt;/span&gt;&lt;/div&gt;" style="edgeLabel;html=1;align=center;verticalAlign=middle;resizable=0;points=[];" vertex="1" connectable="0" parent="AfPHlgVxdCcqtdi9Rfbz-73">
          <mxGeometry x="-0.4114" y="2" relative="1" as="geometry">
            <mxPoint x="-61" y="2" as="offset" />
          </mxGeometry>
        </mxCell>
        <mxCell id="AfPHlgVxdCcqtdi9Rfbz-75" value="" style="endArrow=classic;html=1;rounded=0;entryX=1;entryY=1;entryDx=0;entryDy=0;" edge="1" parent="1">
          <mxGeometry width="50" height="50" relative="1" as="geometry">
            <mxPoint x="2507" y="940" as="sourcePoint" />
            <mxPoint x="2447" y="940" as="targetPoint" />
          </mxGeometry>
        </mxCell>
        <mxCell id="AfPHlgVxdCcqtdi9Rfbz-76" value="SP_b" style="text;html=1;align=center;verticalAlign=middle;whiteSpace=wrap;rounded=0;" vertex="1" parent="1">
          <mxGeometry x="2507" y="920" width="60" height="30" as="geometry" />
        </mxCell>
        <mxCell id="AfPHlgVxdCcqtdi9Rfbz-77" value="&lt;font style=&quot;color: rgb(153, 153, 153);&quot;&gt;x29存储到sp+16&lt;/font&gt;&lt;div&gt;&lt;font style=&quot;color: rgb(153, 153, 153);&quot;&gt;x30存储到sp+16+8&lt;/font&gt;&lt;/div&gt;" style="text;html=1;align=left;verticalAlign=middle;whiteSpace=wrap;rounded=0;" vertex="1" parent="1">
          <mxGeometry x="2020" y="770" width="110" height="30" as="geometry" />
        </mxCell>
        <mxCell id="AfPHlgVxdCcqtdi9Rfbz-78" value="" style="rounded=0;whiteSpace=wrap;html=1;" vertex="1" parent="1">
          <mxGeometry x="2327" y="675" width="120" height="87.5" as="geometry" />
        </mxCell>
        <mxCell id="AfPHlgVxdCcqtdi9Rfbz-79" value="" style="rounded=0;whiteSpace=wrap;html=1;" vertex="1" parent="1">
          <mxGeometry x="2327" y="760.5" width="120" height="87.5" as="geometry" />
        </mxCell>
        <mxCell id="AfPHlgVxdCcqtdi9Rfbz-80" value="" style="rounded=0;whiteSpace=wrap;html=1;" vertex="1" parent="1">
          <mxGeometry x="2327" y="845.5" width="120" height="94.5" as="geometry" />
        </mxCell>
        <mxCell id="AfPHlgVxdCcqtdi9Rfbz-81" value="" style="endArrow=classic;html=1;rounded=0;" edge="1" parent="1">
          <mxGeometry width="50" height="50" relative="1" as="geometry">
            <mxPoint x="2240" y="845.5" as="sourcePoint" />
            <mxPoint x="2310" y="845.5" as="targetPoint" />
          </mxGeometry>
        </mxCell>
        <mxCell id="AfPHlgVxdCcqtdi9Rfbz-82" value="&lt;div&gt;&lt;span style=&quot;background-color: light-dark(#ffffff, var(--ge-dark-color, #121212)); color: light-dark(rgb(0, 0, 0), rgb(255, 255, 255));&quot;&gt;&lt;font style=&quot;font-size: 12px;&quot;&gt;0x1000-24&lt;/font&gt;&lt;/span&gt;&lt;/div&gt;&lt;div&gt;&lt;span style=&quot;font-family: quote-cjk-patch, Inter, system-ui, -apple-system, BlinkMacSystemFont, &amp;quot;Segoe UI&amp;quot;, Roboto, Oxygen, Ubuntu, Cantarell, &amp;quot;Open Sans&amp;quot;, &amp;quot;Helvetica Neue&amp;quot;, sans-serif; text-align: start; text-wrap-mode: wrap;&quot;&gt;&lt;font style=&quot;font-size: 8px;&quot;&gt;0xFE8&lt;/font&gt;&lt;/span&gt;&lt;span style=&quot;background-color: light-dark(#ffffff, var(--ge-dark-color, #121212)); color: light-dark(rgb(0, 0, 0), rgb(255, 255, 255));&quot;&gt;&lt;/span&gt;&lt;/div&gt;" style="edgeLabel;html=1;align=center;verticalAlign=middle;resizable=0;points=[];" vertex="1" connectable="0" parent="AfPHlgVxdCcqtdi9Rfbz-81">
          <mxGeometry x="-0.4114" y="2" relative="1" as="geometry">
            <mxPoint x="-61" y="2" as="offset" />
          </mxGeometry>
        </mxCell>
        <mxCell id="AfPHlgVxdCcqtdi9Rfbz-83" value="" style="endArrow=classic;html=1;rounded=0;" edge="1" parent="1">
          <mxGeometry width="50" height="50" relative="1" as="geometry">
            <mxPoint x="2240" y="760.5" as="sourcePoint" />
            <mxPoint x="2310" y="760.5" as="targetPoint" />
          </mxGeometry>
        </mxCell>
        <mxCell id="AfPHlgVxdCcqtdi9Rfbz-84" value="&lt;div&gt;&lt;span style=&quot;background-color: light-dark(#ffffff, var(--ge-dark-color, #121212)); color: light-dark(rgb(0, 0, 0), rgb(255, 255, 255));&quot;&gt;&lt;font style=&quot;font-size: 12px;&quot;&gt;0x1000-16&lt;/font&gt;&lt;/span&gt;&lt;/div&gt;&lt;div&gt;&lt;span style=&quot;font-family: quote-cjk-patch, Inter, system-ui, -apple-system, BlinkMacSystemFont, &amp;quot;Segoe UI&amp;quot;, Roboto, Oxygen, Ubuntu, Cantarell, &amp;quot;Open Sans&amp;quot;, &amp;quot;Helvetica Neue&amp;quot;, sans-serif; text-align: start; text-wrap-mode: wrap;&quot;&gt;&lt;font style=&quot;font-size: 8px;&quot;&gt;0xFF0&lt;/font&gt;&lt;/span&gt;&lt;span style=&quot;background-color: light-dark(#ffffff, var(--ge-dark-color, #121212)); color: light-dark(rgb(0, 0, 0), rgb(255, 255, 255));&quot;&gt;&lt;/span&gt;&lt;/div&gt;" style="edgeLabel;html=1;align=center;verticalAlign=middle;resizable=0;points=[];" vertex="1" connectable="0" parent="AfPHlgVxdCcqtdi9Rfbz-83">
          <mxGeometry x="-0.4114" y="2" relative="1" as="geometry">
            <mxPoint x="-61" y="2" as="offset" />
          </mxGeometry>
        </mxCell>
        <mxCell id="AfPHlgVxdCcqtdi9Rfbz-85" value="" style="endArrow=classic;html=1;rounded=0;" edge="1" parent="1">
          <mxGeometry width="50" height="50" relative="1" as="geometry">
            <mxPoint x="2230" y="673.3299999999999" as="sourcePoint" />
            <mxPoint x="2300" y="673.3299999999999" as="targetPoint" />
          </mxGeometry>
        </mxCell>
        <mxCell id="AfPHlgVxdCcqtdi9Rfbz-86" value="&lt;div&gt;&lt;span style=&quot;background-color: light-dark(#ffffff, var(--ge-dark-color, #121212)); color: light-dark(rgb(0, 0, 0), rgb(255, 255, 255));&quot;&gt;&lt;font style=&quot;font-size: 12px;&quot;&gt;0x1000-8&lt;/font&gt;&lt;/span&gt;&lt;/div&gt;&lt;div&gt;&lt;span style=&quot;font-family: quote-cjk-patch, Inter, system-ui, -apple-system, BlinkMacSystemFont, &amp;quot;Segoe UI&amp;quot;, Roboto, Oxygen, Ubuntu, Cantarell, &amp;quot;Open Sans&amp;quot;, &amp;quot;Helvetica Neue&amp;quot;, sans-serif; text-align: start; text-wrap-mode: wrap;&quot;&gt;&lt;font style=&quot;font-size: 8px;&quot;&gt;0xFF8&lt;/font&gt;&lt;/span&gt;&lt;span style=&quot;background-color: light-dark(#ffffff, var(--ge-dark-color, #121212)); color: light-dark(rgb(0, 0, 0), rgb(255, 255, 255));&quot;&gt;&lt;/span&gt;&lt;/div&gt;" style="edgeLabel;html=1;align=center;verticalAlign=middle;resizable=0;points=[];" vertex="1" connectable="0" parent="AfPHlgVxdCcqtdi9Rfbz-85">
          <mxGeometry x="-0.4114" y="2" relative="1" as="geometry">
            <mxPoint x="-61" y="2" as="offset" />
          </mxGeometry>
        </mxCell>
        <mxCell id="AfPHlgVxdCcqtdi9Rfbz-87" value="" style="endArrow=classic;html=1;rounded=0;entryX=1;entryY=0.75;entryDx=0;entryDy=0;strokeColor=#FF3333;" edge="1" parent="1">
          <mxGeometry width="50" height="50" relative="1" as="geometry">
            <mxPoint x="2543.5" y="718.1600000000001" as="sourcePoint" />
            <mxPoint x="2450.5" y="718.7850000000001" as="targetPoint" />
          </mxGeometry>
        </mxCell>
        <mxCell id="AfPHlgVxdCcqtdi9Rfbz-88" value="&lt;font style=&quot;color: rgb(255, 51, 51);&quot;&gt;X29 存储到sp+16&lt;/font&gt;" style="edgeLabel;html=1;align=center;verticalAlign=middle;resizable=0;points=[];" vertex="1" connectable="0" parent="AfPHlgVxdCcqtdi9Rfbz-87">
          <mxGeometry x="-0.0524" y="1" relative="1" as="geometry">
            <mxPoint x="1" y="-11" as="offset" />
          </mxGeometry>
        </mxCell>
        <mxCell id="AfPHlgVxdCcqtdi9Rfbz-89" value="" style="endArrow=classic;html=1;rounded=0;entryX=1;entryY=0.75;entryDx=0;entryDy=0;strokeColor=#FF3333;" edge="1" parent="1">
          <mxGeometry width="50" height="50" relative="1" as="geometry">
            <mxPoint x="2550" y="640" as="sourcePoint" />
            <mxPoint x="2457" y="640.625" as="targetPoint" />
          </mxGeometry>
        </mxCell>
        <mxCell id="AfPHlgVxdCcqtdi9Rfbz-90" value="&lt;font style=&quot;color: rgb(255, 51, 51);&quot;&gt;X30 存储到sp+16+8&amp;nbsp;&lt;/font&gt;" style="edgeLabel;html=1;align=center;verticalAlign=middle;resizable=0;points=[];" vertex="1" connectable="0" parent="AfPHlgVxdCcqtdi9Rfbz-89">
          <mxGeometry x="-0.0524" y="1" relative="1" as="geometry">
            <mxPoint x="1" y="-11" as="offset" />
          </mxGeometry>
        </mxCell>
        <mxCell id="AfPHlgVxdCcqtdi9Rfbz-91" value="" style="endArrow=classic;html=1;rounded=0;fillColor=#FF3333;strokeColor=#FF3333;" edge="1" parent="1">
          <mxGeometry width="50" height="50" relative="1" as="geometry">
            <mxPoint x="2537" y="764.5" as="sourcePoint" />
            <mxPoint x="2717" y="764.5" as="targetPoint" />
          </mxGeometry>
        </mxCell>
        <mxCell id="AfPHlgVxdCcqtdi9Rfbz-92" value="&lt;font color=&quot;#ff3333&quot;&gt;&lt;span style=&quot;font-size: 14px;&quot;&gt;add x29,sp,#16&lt;/span&gt;&lt;/font&gt;" style="edgeLabel;html=1;align=center;verticalAlign=middle;resizable=0;points=[];" vertex="1" connectable="0" parent="AfPHlgVxdCcqtdi9Rfbz-91">
          <mxGeometry x="-0.5689" y="1" relative="1" as="geometry">
            <mxPoint x="51" y="-19" as="offset" />
          </mxGeometry>
        </mxCell>
        <mxCell id="AfPHlgVxdCcqtdi9Rfbz-93" value="" style="shape=curlyBracket;whiteSpace=wrap;html=1;rounded=1;flipH=1;labelPosition=right;verticalLabelPosition=middle;align=left;verticalAlign=middle;strokeColor=#97D077;size=0.5;" vertex="1" parent="1">
          <mxGeometry x="2987" y="480" width="20" height="110" as="geometry" />
        </mxCell>
        <mxCell id="AfPHlgVxdCcqtdi9Rfbz-94" value="" style="rounded=0;whiteSpace=wrap;html=1;" vertex="1" parent="1">
          <mxGeometry x="2867" y="480" width="120" height="110" as="geometry" />
        </mxCell>
        <mxCell id="AfPHlgVxdCcqtdi9Rfbz-95" value="" style="rounded=0;whiteSpace=wrap;html=1;" vertex="1" parent="1">
          <mxGeometry x="2867" y="940" width="120" height="120" as="geometry" />
        </mxCell>
        <mxCell id="AfPHlgVxdCcqtdi9Rfbz-96" value="" style="rounded=0;whiteSpace=wrap;html=1;" vertex="1" parent="1">
          <mxGeometry x="2867" y="420" width="120" height="60" as="geometry" />
        </mxCell>
        <mxCell id="AfPHlgVxdCcqtdi9Rfbz-97" value="" style="endArrow=classic;html=1;rounded=0;entryX=1;entryY=1;entryDx=0;entryDy=0;" edge="1" parent="1" target="AfPHlgVxdCcqtdi9Rfbz-96">
          <mxGeometry width="50" height="50" relative="1" as="geometry">
            <mxPoint x="3047" y="480" as="sourcePoint" />
            <mxPoint x="3157" y="500" as="targetPoint" />
          </mxGeometry>
        </mxCell>
        <mxCell id="AfPHlgVxdCcqtdi9Rfbz-98" value="FP_a" style="text;html=1;align=center;verticalAlign=middle;whiteSpace=wrap;rounded=0;" vertex="1" parent="1">
          <mxGeometry x="3047" y="460" width="60" height="30" as="geometry" />
        </mxCell>
        <mxCell id="AfPHlgVxdCcqtdi9Rfbz-99" value="" style="endArrow=classic;html=1;rounded=0;entryX=1;entryY=1;entryDx=0;entryDy=0;" edge="1" parent="1">
          <mxGeometry width="50" height="50" relative="1" as="geometry">
            <mxPoint x="3047" y="590" as="sourcePoint" />
            <mxPoint x="2987" y="590" as="targetPoint" />
          </mxGeometry>
        </mxCell>
        <mxCell id="AfPHlgVxdCcqtdi9Rfbz-100" value="SP_a" style="text;html=1;align=center;verticalAlign=middle;whiteSpace=wrap;rounded=0;" vertex="1" parent="1">
          <mxGeometry x="3047" y="570" width="60" height="30" as="geometry" />
        </mxCell>
        <mxCell id="AfPHlgVxdCcqtdi9Rfbz-101" value="&lt;font style=&quot;color: rgb(151, 208, 119);&quot;&gt;函数a栈区&lt;/font&gt;" style="text;html=1;align=center;verticalAlign=middle;whiteSpace=wrap;rounded=0;" vertex="1" parent="1">
          <mxGeometry x="2997" y="520" width="80" height="30" as="geometry" />
        </mxCell>
        <mxCell id="AfPHlgVxdCcqtdi9Rfbz-102" value="值为a函数的返回地址" style="rounded=0;whiteSpace=wrap;html=1;" vertex="1" parent="1">
          <mxGeometry x="2867" y="590" width="120" height="87.5" as="geometry" />
        </mxCell>
        <mxCell id="AfPHlgVxdCcqtdi9Rfbz-103" value="" style="endArrow=classic;html=1;rounded=0;" edge="1" parent="1">
          <mxGeometry width="50" height="50" relative="1" as="geometry">
            <mxPoint x="2777" y="940" as="sourcePoint" />
            <mxPoint x="2847" y="940" as="targetPoint" />
          </mxGeometry>
        </mxCell>
        <mxCell id="AfPHlgVxdCcqtdi9Rfbz-104" value="&lt;div&gt;&lt;span style=&quot;background-color: light-dark(#ffffff, var(--ge-dark-color, #121212)); color: light-dark(rgb(0, 0, 0), rgb(255, 255, 255));&quot;&gt;&lt;font style=&quot;font-size: 12px;&quot;&gt;0x1000-32&lt;/font&gt;&lt;/span&gt;&lt;/div&gt;&lt;div&gt;&lt;span style=&quot;font-family: quote-cjk-patch, Inter, system-ui, -apple-system, BlinkMacSystemFont, &amp;quot;Segoe UI&amp;quot;, Roboto, Oxygen, Ubuntu, Cantarell, &amp;quot;Open Sans&amp;quot;, &amp;quot;Helvetica Neue&amp;quot;, sans-serif; text-align: start; text-wrap-mode: wrap;&quot;&gt;&lt;font style=&quot;font-size: 8px;&quot;&gt;0xFE0&lt;/font&gt;&lt;/span&gt;&lt;span style=&quot;background-color: light-dark(#ffffff, var(--ge-dark-color, #121212)); color: light-dark(rgb(0, 0, 0), rgb(255, 255, 255));&quot;&gt;&lt;/span&gt;&lt;/div&gt;" style="edgeLabel;html=1;align=center;verticalAlign=middle;resizable=0;points=[];" vertex="1" connectable="0" parent="AfPHlgVxdCcqtdi9Rfbz-103">
          <mxGeometry x="-0.4114" y="2" relative="1" as="geometry">
            <mxPoint x="-61" y="2" as="offset" />
          </mxGeometry>
        </mxCell>
        <mxCell id="AfPHlgVxdCcqtdi9Rfbz-105" value="" style="endArrow=classic;html=1;rounded=0;entryX=1;entryY=1;entryDx=0;entryDy=0;" edge="1" parent="1">
          <mxGeometry width="50" height="50" relative="1" as="geometry">
            <mxPoint x="3056" y="940" as="sourcePoint" />
            <mxPoint x="2996" y="940" as="targetPoint" />
          </mxGeometry>
        </mxCell>
        <mxCell id="AfPHlgVxdCcqtdi9Rfbz-106" value="SP_b" style="text;html=1;align=center;verticalAlign=middle;whiteSpace=wrap;rounded=0;" vertex="1" parent="1">
          <mxGeometry x="3047" y="920" width="60" height="30" as="geometry" />
        </mxCell>
        <mxCell id="AfPHlgVxdCcqtdi9Rfbz-107" value="&lt;font color=&quot;#999999&quot;&gt;x29=sp+16&lt;/font&gt;" style="text;html=1;align=left;verticalAlign=middle;whiteSpace=wrap;rounded=0;" vertex="1" parent="1">
          <mxGeometry x="2580" y="762.5" width="110" height="30" as="geometry" />
        </mxCell>
        <mxCell id="AfPHlgVxdCcqtdi9Rfbz-108" value="值为0x2000" style="rounded=0;whiteSpace=wrap;html=1;" vertex="1" parent="1">
          <mxGeometry x="2867" y="675" width="120" height="87.5" as="geometry" />
        </mxCell>
        <mxCell id="AfPHlgVxdCcqtdi9Rfbz-109" value="" style="rounded=0;whiteSpace=wrap;html=1;" vertex="1" parent="1">
          <mxGeometry x="2867" y="760.5" width="120" height="87.5" as="geometry" />
        </mxCell>
        <mxCell id="AfPHlgVxdCcqtdi9Rfbz-110" value="" style="rounded=0;whiteSpace=wrap;html=1;" vertex="1" parent="1">
          <mxGeometry x="2867" y="845.5" width="120" height="94.5" as="geometry" />
        </mxCell>
        <mxCell id="AfPHlgVxdCcqtdi9Rfbz-111" value="" style="endArrow=classic;html=1;rounded=0;" edge="1" parent="1">
          <mxGeometry width="50" height="50" relative="1" as="geometry">
            <mxPoint x="2780" y="845.5" as="sourcePoint" />
            <mxPoint x="2850" y="845.5" as="targetPoint" />
          </mxGeometry>
        </mxCell>
        <mxCell id="AfPHlgVxdCcqtdi9Rfbz-112" value="&lt;div&gt;&lt;span style=&quot;background-color: light-dark(#ffffff, var(--ge-dark-color, #121212)); color: light-dark(rgb(0, 0, 0), rgb(255, 255, 255));&quot;&gt;&lt;font style=&quot;font-size: 12px;&quot;&gt;0x1000-24&lt;/font&gt;&lt;/span&gt;&lt;/div&gt;&lt;div&gt;&lt;span style=&quot;font-family: quote-cjk-patch, Inter, system-ui, -apple-system, BlinkMacSystemFont, &amp;quot;Segoe UI&amp;quot;, Roboto, Oxygen, Ubuntu, Cantarell, &amp;quot;Open Sans&amp;quot;, &amp;quot;Helvetica Neue&amp;quot;, sans-serif; text-align: start; text-wrap-mode: wrap;&quot;&gt;&lt;font style=&quot;font-size: 8px;&quot;&gt;0xFE8&lt;/font&gt;&lt;/span&gt;&lt;span style=&quot;background-color: light-dark(#ffffff, var(--ge-dark-color, #121212)); color: light-dark(rgb(0, 0, 0), rgb(255, 255, 255));&quot;&gt;&lt;/span&gt;&lt;/div&gt;" style="edgeLabel;html=1;align=center;verticalAlign=middle;resizable=0;points=[];" vertex="1" connectable="0" parent="AfPHlgVxdCcqtdi9Rfbz-111">
          <mxGeometry x="-0.4114" y="2" relative="1" as="geometry">
            <mxPoint x="-61" y="2" as="offset" />
          </mxGeometry>
        </mxCell>
        <mxCell id="AfPHlgVxdCcqtdi9Rfbz-113" value="" style="endArrow=classic;html=1;rounded=0;" edge="1" parent="1">
          <mxGeometry width="50" height="50" relative="1" as="geometry">
            <mxPoint x="2780" y="760.5" as="sourcePoint" />
            <mxPoint x="2850" y="760.5" as="targetPoint" />
          </mxGeometry>
        </mxCell>
        <mxCell id="AfPHlgVxdCcqtdi9Rfbz-114" value="&lt;div&gt;&lt;span style=&quot;background-color: light-dark(#ffffff, var(--ge-dark-color, #121212)); color: light-dark(rgb(0, 0, 0), rgb(255, 255, 255));&quot;&gt;&lt;font style=&quot;font-size: 12px;&quot;&gt;0x1000-16&lt;/font&gt;&lt;/span&gt;&lt;/div&gt;&lt;div&gt;&lt;span style=&quot;font-family: quote-cjk-patch, Inter, system-ui, -apple-system, BlinkMacSystemFont, &amp;quot;Segoe UI&amp;quot;, Roboto, Oxygen, Ubuntu, Cantarell, &amp;quot;Open Sans&amp;quot;, &amp;quot;Helvetica Neue&amp;quot;, sans-serif; text-align: start; text-wrap-mode: wrap;&quot;&gt;&lt;font style=&quot;font-size: 8px;&quot;&gt;0xFF0&lt;/font&gt;&lt;/span&gt;&lt;span style=&quot;background-color: light-dark(#ffffff, var(--ge-dark-color, #121212)); color: light-dark(rgb(0, 0, 0), rgb(255, 255, 255));&quot;&gt;&lt;/span&gt;&lt;/div&gt;" style="edgeLabel;html=1;align=center;verticalAlign=middle;resizable=0;points=[];" vertex="1" connectable="0" parent="AfPHlgVxdCcqtdi9Rfbz-113">
          <mxGeometry x="-0.4114" y="2" relative="1" as="geometry">
            <mxPoint x="-61" y="2" as="offset" />
          </mxGeometry>
        </mxCell>
        <mxCell id="AfPHlgVxdCcqtdi9Rfbz-115" value="" style="endArrow=classic;html=1;rounded=0;" edge="1" parent="1">
          <mxGeometry width="50" height="50" relative="1" as="geometry">
            <mxPoint x="2770" y="673.3299999999999" as="sourcePoint" />
            <mxPoint x="2840" y="673.3299999999999" as="targetPoint" />
          </mxGeometry>
        </mxCell>
        <mxCell id="AfPHlgVxdCcqtdi9Rfbz-116" value="&lt;div&gt;&lt;span style=&quot;background-color: light-dark(#ffffff, var(--ge-dark-color, #121212)); color: light-dark(rgb(0, 0, 0), rgb(255, 255, 255));&quot;&gt;&lt;font style=&quot;font-size: 12px;&quot;&gt;0x1000-8&lt;/font&gt;&lt;/span&gt;&lt;/div&gt;&lt;div&gt;&lt;span style=&quot;font-family: quote-cjk-patch, Inter, system-ui, -apple-system, BlinkMacSystemFont, &amp;quot;Segoe UI&amp;quot;, Roboto, Oxygen, Ubuntu, Cantarell, &amp;quot;Open Sans&amp;quot;, &amp;quot;Helvetica Neue&amp;quot;, sans-serif; text-align: start; text-wrap-mode: wrap;&quot;&gt;&lt;font style=&quot;font-size: 8px;&quot;&gt;0xFF8&lt;/font&gt;&lt;/span&gt;&lt;span style=&quot;background-color: light-dark(#ffffff, var(--ge-dark-color, #121212)); color: light-dark(rgb(0, 0, 0), rgb(255, 255, 255));&quot;&gt;&lt;/span&gt;&lt;/div&gt;" style="edgeLabel;html=1;align=center;verticalAlign=middle;resizable=0;points=[];" vertex="1" connectable="0" parent="AfPHlgVxdCcqtdi9Rfbz-115">
          <mxGeometry x="-0.4114" y="2" relative="1" as="geometry">
            <mxPoint x="-61" y="2" as="offset" />
          </mxGeometry>
        </mxCell>
        <mxCell id="AfPHlgVxdCcqtdi9Rfbz-117" value="" style="endArrow=classic;html=1;rounded=0;entryX=1;entryY=0.75;entryDx=0;entryDy=0;strokeColor=#000000;" edge="1" parent="1">
          <mxGeometry width="50" height="50" relative="1" as="geometry">
            <mxPoint x="3083.5" y="718.1600000000001" as="sourcePoint" />
            <mxPoint x="2990.5" y="718.7850000000001" as="targetPoint" />
          </mxGeometry>
        </mxCell>
        <mxCell id="AfPHlgVxdCcqtdi9Rfbz-118" value="&lt;font style=&quot;color: rgb(0, 0, 0);&quot;&gt;X29 存储到sp+16&lt;/font&gt;" style="edgeLabel;html=1;align=center;verticalAlign=middle;resizable=0;points=[];strokeColor=#000000;" vertex="1" connectable="0" parent="AfPHlgVxdCcqtdi9Rfbz-117">
          <mxGeometry x="-0.0524" y="1" relative="1" as="geometry">
            <mxPoint x="1" y="-11" as="offset" />
          </mxGeometry>
        </mxCell>
        <mxCell id="AfPHlgVxdCcqtdi9Rfbz-119" value="" style="endArrow=classic;html=1;rounded=0;entryX=1;entryY=0.75;entryDx=0;entryDy=0;strokeColor=#000000;" edge="1" parent="1">
          <mxGeometry width="50" height="50" relative="1" as="geometry">
            <mxPoint x="3090" y="640" as="sourcePoint" />
            <mxPoint x="2997" y="640.625" as="targetPoint" />
          </mxGeometry>
        </mxCell>
        <mxCell id="AfPHlgVxdCcqtdi9Rfbz-120" value="&lt;font style=&quot;color: rgb(0, 0, 0);&quot;&gt;X30 存储到sp+16+8&amp;nbsp;&lt;/font&gt;" style="edgeLabel;html=1;align=center;verticalAlign=middle;resizable=0;points=[];strokeColor=#000000;" vertex="1" connectable="0" parent="AfPHlgVxdCcqtdi9Rfbz-119">
          <mxGeometry x="-0.0524" y="1" relative="1" as="geometry">
            <mxPoint x="1" y="-11" as="offset" />
          </mxGeometry>
        </mxCell>
        <mxCell id="AfPHlgVxdCcqtdi9Rfbz-121" value="" style="endArrow=classic;html=1;rounded=0;entryX=1;entryY=1;entryDx=0;entryDy=0;strokeColor=light-dark(#ff0000, #ededed);" edge="1" parent="1">
          <mxGeometry width="50" height="50" relative="1" as="geometry">
            <mxPoint x="3057" y="760" as="sourcePoint" />
            <mxPoint x="2997" y="760" as="targetPoint" />
          </mxGeometry>
        </mxCell>
        <mxCell id="AfPHlgVxdCcqtdi9Rfbz-122" value="&lt;font style=&quot;color: light-dark(rgb(255, 0, 0), rgb(237, 237, 237));&quot;&gt;FP_b&lt;/font&gt;" style="text;html=1;align=center;verticalAlign=middle;whiteSpace=wrap;rounded=0;" vertex="1" parent="1">
          <mxGeometry x="3057" y="740" width="60" height="30" as="geometry" />
        </mxCell>
        <mxCell id="AfPHlgVxdCcqtdi9Rfbz-123" value="X30的值是函数的下一个指令地址&lt;div&gt;x29的值 =0x2000 即上一个函数的栈底&lt;/div&gt;" style="text;html=1;align=center;verticalAlign=middle;whiteSpace=wrap;rounded=0;" vertex="1" parent="1">
          <mxGeometry x="2267" y="1130" width="270" height="30" as="geometry" />
        </mxCell>
        <mxCell id="AfPHlgVxdCcqtdi9Rfbz-124" value="" style="shape=curlyBracket;whiteSpace=wrap;html=1;rounded=1;flipH=1;labelPosition=right;verticalLabelPosition=middle;align=left;verticalAlign=middle;strokeColor=#97D077;size=0.5;" vertex="1" parent="1">
          <mxGeometry x="2987" y="760" width="23" height="180" as="geometry" />
        </mxCell>
        <mxCell id="AfPHlgVxdCcqtdi9Rfbz-125" value="&lt;font style=&quot;color: rgb(151, 208, 119);&quot;&gt;函数b栈区&lt;/font&gt;" style="text;html=1;align=center;verticalAlign=middle;whiteSpace=wrap;rounded=0;" vertex="1" parent="1">
          <mxGeometry x="2997" y="835" width="80" height="30" as="geometry" />
        </mxCell>
        <mxCell id="AfPHlgVxdCcqtdi9Rfbz-126" value="x29 指向由x2000 转为指向 0x1000-16的位置&lt;div&gt;x30指向a函数的返回地址&lt;/div&gt;" style="text;html=1;align=center;verticalAlign=middle;whiteSpace=wrap;rounded=0;" vertex="1" parent="1">
          <mxGeometry x="2824" y="1110" width="270" height="30" as="geometry" />
        </mxCell>
        <mxCell id="AfPHlgVxdCcqtdi9Rfbz-127" value="&lt;div&gt;&lt;font style=&quot;font-size: 18px;&quot;&gt;sub&lt;span style=&quot;white-space: pre;&quot;&gt;&#x9;&lt;/span&gt;sp, sp, #32&amp;nbsp; &amp;nbsp; &amp;nbsp; &amp;nbsp; &amp;nbsp; &amp;nbsp; &amp;nbsp;; 更新栈顶寄存器的值，（可以看出：申请 32 字节占空间作为新用）&lt;/font&gt;&lt;/div&gt;&lt;div&gt;&lt;font size=&quot;3&quot;&gt;stp&lt;span style=&quot;white-space:pre&quot;&gt;&#x9;&lt;/span&gt;x29, x30, [sp, #16]&amp;nbsp; &amp;nbsp; &amp;nbsp;; 保存调用该函数前的栈顶寄存器的值和该函数结束返回后下一将执行指令地址值&lt;/font&gt;&lt;/div&gt;&lt;div&gt;&lt;font size=&quot;3&quot;&gt;add&lt;span style=&quot;white-space:pre&quot;&gt;&#x9;&lt;/span&gt;x29, sp, #16&amp;nbsp; &amp;nbsp; &amp;nbsp; &amp;nbsp; &amp;nbsp; &amp;nbsp; ; 更新栈底寄存器的值，(可以看出：还剩余 16 字节空间给该函数用)&lt;/font&gt;&lt;/div&gt;&lt;div&gt;&lt;font size=&quot;3&quot;&gt;.....&lt;/font&gt;&lt;/div&gt;&lt;div&gt;&lt;font size=&quot;3&quot;&gt;bl&lt;span style=&quot;white-space:pre&quot;&gt;&#x9;&lt;/span&gt;_printf&lt;span style=&quot;white-space:pre&quot;&gt;&#x9;&lt;/span&gt;&amp;nbsp; &amp;nbsp; &amp;nbsp; &amp;nbsp; &amp;nbsp; &amp;nbsp; &amp;nbsp; &amp;nbsp; ; 调用 ‘printf’ 函数进行打印&lt;/font&gt;&lt;/div&gt;&lt;div&gt;&lt;font size=&quot;3&quot;&gt;stur&lt;span style=&quot;white-space:pre&quot;&gt;&#x9;&lt;/span&gt;w0, [x29, #-4]&amp;nbsp; &amp;nbsp; &amp;nbsp; &amp;nbsp; &amp;nbsp; ; 将 w0 寄存器的值(&#39;bl&#39; 函数调用的返回值)保存到 [x29 - 4] 的内存地址中&lt;/font&gt;&lt;/div&gt;&lt;div&gt;&lt;font size=&quot;3&quot;&gt;ldp&lt;span style=&quot;white-space:pre&quot;&gt;&#x9;&lt;/span&gt;x29, x30, [sp, #16]&amp;nbsp; &amp;nbsp; &amp;nbsp;; 恢复调用该函数之前栈底寄存器的值&lt;/font&gt;&lt;/div&gt;&lt;div&gt;&lt;font size=&quot;3&quot;&gt;add&lt;span style=&quot;white-space:pre&quot;&gt;&#x9;&lt;/span&gt;sp, sp, #32&amp;nbsp; &amp;nbsp; &amp;nbsp; &amp;nbsp; &amp;nbsp; &amp;nbsp; &amp;nbsp;; 恢复调用该函数之前栈顶寄存器的值&lt;/font&gt;&lt;/div&gt;&lt;div&gt;&lt;font size=&quot;3&quot;&gt;ret&lt;span style=&quot;white-space:pre&quot;&gt;&#x9;&#x9;&#x9;&#x9;&#x9;&#x9;&#x9;&#x9;&#x9;&#x9;&#x9;&#x9;&#x9;&lt;/span&gt;; 返回&lt;/font&gt;&lt;/div&gt;&lt;div&gt;&lt;br&gt;&lt;/div&gt;" style="rounded=0;whiteSpace=wrap;html=1;align=left;" vertex="1" parent="1">
          <mxGeometry x="400" y="440" width="760" height="300" as="geometry" />
        </mxCell>
        <mxCell id="AfPHlgVxdCcqtdi9Rfbz-128" value="&lt;b&gt;&lt;font style=&quot;font-size: 18px;&quot;&gt;出栈操作&lt;/font&gt;&lt;/b&gt;" style="text;html=1;align=center;verticalAlign=middle;whiteSpace=wrap;rounded=0;" vertex="1" parent="1">
          <mxGeometry x="3190" y="360" width="110" height="30" as="geometry" />
        </mxCell>
        <mxCell id="AfPHlgVxdCcqtdi9Rfbz-129" value="" style="endArrow=classic;html=1;rounded=0;fillColor=#FF3333;strokeColor=#FF3333;" edge="1" parent="1">
          <mxGeometry width="50" height="50" relative="1" as="geometry">
            <mxPoint x="3248" y="764.5" as="sourcePoint" />
            <mxPoint x="3428" y="764.5" as="targetPoint" />
          </mxGeometry>
        </mxCell>
        <mxCell id="AfPHlgVxdCcqtdi9Rfbz-130" value="&lt;font color=&quot;#ff3333&quot;&gt;&lt;span style=&quot;font-size: 14px;&quot;&gt;ldp x29,x30，[sp,#16]&lt;/span&gt;&lt;/font&gt;" style="edgeLabel;html=1;align=center;verticalAlign=middle;resizable=0;points=[];" vertex="1" connectable="0" parent="AfPHlgVxdCcqtdi9Rfbz-129">
          <mxGeometry x="-0.5689" y="1" relative="1" as="geometry">
            <mxPoint x="51" y="-19" as="offset" />
          </mxGeometry>
        </mxCell>
        <mxCell id="AfPHlgVxdCcqtdi9Rfbz-131" value="" style="shape=curlyBracket;whiteSpace=wrap;html=1;rounded=1;flipH=1;labelPosition=right;verticalLabelPosition=middle;align=left;verticalAlign=middle;strokeColor=#97D077;size=0.5;" vertex="1" parent="1">
          <mxGeometry x="3698" y="480" width="20" height="110" as="geometry" />
        </mxCell>
        <mxCell id="AfPHlgVxdCcqtdi9Rfbz-132" value="" style="rounded=0;whiteSpace=wrap;html=1;" vertex="1" parent="1">
          <mxGeometry x="3578" y="480" width="120" height="110" as="geometry" />
        </mxCell>
        <mxCell id="AfPHlgVxdCcqtdi9Rfbz-133" value="" style="rounded=0;whiteSpace=wrap;html=1;" vertex="1" parent="1">
          <mxGeometry x="3578" y="940" width="120" height="120" as="geometry" />
        </mxCell>
        <mxCell id="AfPHlgVxdCcqtdi9Rfbz-134" value="" style="rounded=0;whiteSpace=wrap;html=1;" vertex="1" parent="1">
          <mxGeometry x="3578" y="420" width="120" height="60" as="geometry" />
        </mxCell>
        <mxCell id="AfPHlgVxdCcqtdi9Rfbz-135" value="" style="endArrow=classic;html=1;rounded=0;entryX=1;entryY=1;entryDx=0;entryDy=0;strokeColor=#FF3333;" edge="1" parent="1" target="AfPHlgVxdCcqtdi9Rfbz-134">
          <mxGeometry width="50" height="50" relative="1" as="geometry">
            <mxPoint x="3758" y="480" as="sourcePoint" />
            <mxPoint x="3868" y="500" as="targetPoint" />
          </mxGeometry>
        </mxCell>
        <mxCell id="AfPHlgVxdCcqtdi9Rfbz-136" value="&lt;font style=&quot;color: rgb(255, 51, 51);&quot;&gt;FP_a&lt;/font&gt;" style="text;html=1;align=center;verticalAlign=middle;whiteSpace=wrap;rounded=0;" vertex="1" parent="1">
          <mxGeometry x="3758" y="460" width="60" height="30" as="geometry" />
        </mxCell>
        <mxCell id="AfPHlgVxdCcqtdi9Rfbz-137" value="" style="endArrow=classic;html=1;rounded=0;entryX=1;entryY=1;entryDx=0;entryDy=0;" edge="1" parent="1">
          <mxGeometry width="50" height="50" relative="1" as="geometry">
            <mxPoint x="3758" y="590" as="sourcePoint" />
            <mxPoint x="3698" y="590" as="targetPoint" />
          </mxGeometry>
        </mxCell>
        <mxCell id="AfPHlgVxdCcqtdi9Rfbz-138" value="SP_a" style="text;html=1;align=center;verticalAlign=middle;whiteSpace=wrap;rounded=0;" vertex="1" parent="1">
          <mxGeometry x="3758" y="570" width="60" height="30" as="geometry" />
        </mxCell>
        <mxCell id="AfPHlgVxdCcqtdi9Rfbz-139" value="&lt;font style=&quot;color: rgb(151, 208, 119);&quot;&gt;函数a栈区&lt;/font&gt;" style="text;html=1;align=center;verticalAlign=middle;whiteSpace=wrap;rounded=0;" vertex="1" parent="1">
          <mxGeometry x="3708" y="520" width="80" height="30" as="geometry" />
        </mxCell>
        <mxCell id="AfPHlgVxdCcqtdi9Rfbz-140" value="" style="rounded=0;whiteSpace=wrap;html=1;" vertex="1" parent="1">
          <mxGeometry x="3578" y="590" width="120" height="87.5" as="geometry" />
        </mxCell>
        <mxCell id="AfPHlgVxdCcqtdi9Rfbz-141" value="" style="endArrow=classic;html=1;rounded=0;" edge="1" parent="1">
          <mxGeometry width="50" height="50" relative="1" as="geometry">
            <mxPoint x="3488" y="940" as="sourcePoint" />
            <mxPoint x="3558" y="940" as="targetPoint" />
          </mxGeometry>
        </mxCell>
        <mxCell id="AfPHlgVxdCcqtdi9Rfbz-142" value="&lt;div&gt;&lt;span style=&quot;background-color: light-dark(#ffffff, var(--ge-dark-color, #121212)); color: light-dark(rgb(0, 0, 0), rgb(255, 255, 255));&quot;&gt;&lt;font style=&quot;font-size: 12px;&quot;&gt;0x1000-32&lt;/font&gt;&lt;/span&gt;&lt;/div&gt;&lt;div&gt;&lt;span style=&quot;font-family: quote-cjk-patch, Inter, system-ui, -apple-system, BlinkMacSystemFont, &amp;quot;Segoe UI&amp;quot;, Roboto, Oxygen, Ubuntu, Cantarell, &amp;quot;Open Sans&amp;quot;, &amp;quot;Helvetica Neue&amp;quot;, sans-serif; text-align: start; text-wrap-mode: wrap;&quot;&gt;&lt;font style=&quot;font-size: 8px;&quot;&gt;0xFE0&lt;/font&gt;&lt;/span&gt;&lt;span style=&quot;background-color: light-dark(#ffffff, var(--ge-dark-color, #121212)); color: light-dark(rgb(0, 0, 0), rgb(255, 255, 255));&quot;&gt;&lt;/span&gt;&lt;/div&gt;" style="edgeLabel;html=1;align=center;verticalAlign=middle;resizable=0;points=[];" vertex="1" connectable="0" parent="AfPHlgVxdCcqtdi9Rfbz-141">
          <mxGeometry x="-0.4114" y="2" relative="1" as="geometry">
            <mxPoint x="-61" y="2" as="offset" />
          </mxGeometry>
        </mxCell>
        <mxCell id="AfPHlgVxdCcqtdi9Rfbz-143" value="" style="endArrow=classic;html=1;rounded=0;entryX=1;entryY=1;entryDx=0;entryDy=0;" edge="1" parent="1">
          <mxGeometry width="50" height="50" relative="1" as="geometry">
            <mxPoint x="3767" y="940" as="sourcePoint" />
            <mxPoint x="3707" y="940" as="targetPoint" />
          </mxGeometry>
        </mxCell>
        <mxCell id="AfPHlgVxdCcqtdi9Rfbz-144" value="SP_b" style="text;html=1;align=center;verticalAlign=middle;whiteSpace=wrap;rounded=0;" vertex="1" parent="1">
          <mxGeometry x="3758" y="920" width="60" height="30" as="geometry" />
        </mxCell>
        <mxCell id="AfPHlgVxdCcqtdi9Rfbz-145" value="&lt;div&gt;&lt;span style=&quot;color: rgb(15, 17, 21); font-family: quote-cjk-patch, Inter, system-ui, -apple-system, BlinkMacSystemFont, &amp;quot;Segoe UI&amp;quot;, Roboto, Oxygen, Ubuntu, Cantarell, &amp;quot;Open Sans&amp;quot;, &amp;quot;Helvetica Neue&amp;quot;, sans-serif; font-size: 16px; background-color: rgb(255, 255, 255);&quot;&gt;&lt;ul style=&quot;margin: 16px 0px; padding-left: 18px;&quot;&gt;&lt;li style=&quot;margin-top: 6px;&quot;&gt;&lt;p style=&quot;margin-top: 0px !important; margin-right: 0px; margin-bottom: 0px; margin-left: 0px;&quot; class=&quot;ds-markdown-paragraph&quot;&gt;计算：从内存地址&amp;nbsp;&lt;code style=&quot;box-sizing: border-box; font-variant-numeric: normal; font-variant-east-asian: normal; font-variant-alternates: normal; font-variant-position: normal; font-variant-emoji: normal; font-stretch: 100%; line-height: 22px; font-optical-sizing: auto; font-size-adjust: none; font-kerning: auto; font-feature-settings: normal; font-variation-settings: normal; font-family: Menlo, Monaco, &amp;quot;Cascadia Mono&amp;quot;, Consolas, &amp;quot;Ubuntu Mono&amp;quot;, &amp;quot;DejaVu Sans Mono&amp;quot;, &amp;quot;Liberation Mono&amp;quot;, &amp;quot;JetBrains Mono&amp;quot;, &amp;quot;Fira Code&amp;quot;, Cousine, &amp;quot;Roboto Mono&amp;quot;, &amp;quot;Courier New&amp;quot;, Courier, sans-serif, system-ui; background-color: rgb(235, 238, 242); border-radius: 6px; align-items: center; padding: 0px 5px; display: inline-flex; font-size: 0.875em !important;&quot;&gt;[SP + 16] = [0xFE0 + 16] = [0xFF0]&lt;/code&gt;&amp;nbsp;加载数据&lt;/p&gt;&lt;/li&gt;&lt;li style=&quot;margin-top: 6px;&quot;&gt;&lt;p style=&quot;margin-top: 0px !important; margin-right: 0px; margin-bottom: 8px; margin-left: 0px;&quot; class=&quot;ds-markdown-paragraph&quot;&gt;操作：&lt;/p&gt;&lt;ul style=&quot;margin: 4px 0px 0px; padding-left: 18px;&quot;&gt;&lt;li&gt;&lt;p style=&quot;margin-top: 0px !important; margin-right: 0px; margin-bottom: 0px; margin-left: 0px;&quot; class=&quot;ds-markdown-paragraph&quot;&gt;从地址 0xFF0加载 8 字节到 x29（恢复旧的 FP ）&lt;/p&gt;&lt;/li&gt;&lt;li style=&quot;margin-top: 6px;&quot;&gt;&lt;p style=&quot;margin-top: 0px !important; margin-right: 0px; margin-bottom: 0px; margin-left: 0px;&quot; class=&quot;ds-markdown-paragraph&quot;&gt;从地址 0xFF8 加载 8 字节到 x30（恢复返回地址）&lt;/p&gt;&lt;/li&gt;&lt;/ul&gt;&lt;/li&gt;&lt;li style=&quot;margin-top: 6px;&quot;&gt;&lt;p style=&quot;margin-top: 0px !important; margin-right: 0px; margin-bottom: 8px; margin-left: 0px;&quot; class=&quot;ds-markdown-paragraph&quot;&gt;结果：&lt;/p&gt;&lt;/li&gt;&lt;ul style=&quot;margin: 4px 0px 0px; padding-left: 18px;&quot;&gt;&lt;li&gt;&lt;p style=&quot;margin-top: 0px !important; margin-right: 0px; margin-bottom: 0px; margin-left: 0px;&quot; class=&quot;ds-markdown-paragraph&quot;&gt;x29 (FP) 被恢复为之前保存的值（指向 0x2000）&lt;/p&gt;&lt;/li&gt;&lt;li style=&quot;margin-top: 6px;&quot;&gt;&lt;p style=&quot;margin-top: 0px !important; margin-right: 0px; margin-bottom: 0px; margin-left: 0px;&quot; class=&quot;ds-markdown-paragraph&quot;&gt;x30 (LR) 被恢复为之前保存的值（x30 函数返回地址）&lt;/p&gt;&lt;/li&gt;&lt;/ul&gt;&lt;/ul&gt;&lt;div&gt;此时FP 指向函数a的栈底&lt;/div&gt;&lt;/span&gt;&lt;/div&gt;" style="text;html=1;align=left;verticalAlign=middle;whiteSpace=wrap;rounded=0;" vertex="1" parent="1">
          <mxGeometry x="3400" y="1080" width="550" height="250" as="geometry" />
        </mxCell>
        <mxCell id="AfPHlgVxdCcqtdi9Rfbz-146" value="" style="rounded=0;whiteSpace=wrap;html=1;" vertex="1" parent="1">
          <mxGeometry x="3578" y="675" width="120" height="87.5" as="geometry" />
        </mxCell>
        <mxCell id="AfPHlgVxdCcqtdi9Rfbz-147" value="" style="rounded=0;whiteSpace=wrap;html=1;" vertex="1" parent="1">
          <mxGeometry x="3578" y="760.5" width="120" height="87.5" as="geometry" />
        </mxCell>
        <mxCell id="AfPHlgVxdCcqtdi9Rfbz-148" value="" style="rounded=0;whiteSpace=wrap;html=1;" vertex="1" parent="1">
          <mxGeometry x="3578" y="845.5" width="120" height="94.5" as="geometry" />
        </mxCell>
        <mxCell id="AfPHlgVxdCcqtdi9Rfbz-149" value="" style="endArrow=classic;html=1;rounded=0;" edge="1" parent="1">
          <mxGeometry width="50" height="50" relative="1" as="geometry">
            <mxPoint x="3491" y="845.5" as="sourcePoint" />
            <mxPoint x="3561" y="845.5" as="targetPoint" />
          </mxGeometry>
        </mxCell>
        <mxCell id="AfPHlgVxdCcqtdi9Rfbz-150" value="&lt;div&gt;&lt;span style=&quot;background-color: light-dark(#ffffff, var(--ge-dark-color, #121212)); color: light-dark(rgb(0, 0, 0), rgb(255, 255, 255));&quot;&gt;&lt;font style=&quot;font-size: 12px;&quot;&gt;0x1000-24&lt;/font&gt;&lt;/span&gt;&lt;/div&gt;&lt;div&gt;&lt;span style=&quot;font-family: quote-cjk-patch, Inter, system-ui, -apple-system, BlinkMacSystemFont, &amp;quot;Segoe UI&amp;quot;, Roboto, Oxygen, Ubuntu, Cantarell, &amp;quot;Open Sans&amp;quot;, &amp;quot;Helvetica Neue&amp;quot;, sans-serif; text-align: start; text-wrap-mode: wrap;&quot;&gt;&lt;font style=&quot;font-size: 8px;&quot;&gt;0xFE8&lt;/font&gt;&lt;/span&gt;&lt;span style=&quot;background-color: light-dark(#ffffff, var(--ge-dark-color, #121212)); color: light-dark(rgb(0, 0, 0), rgb(255, 255, 255));&quot;&gt;&lt;/span&gt;&lt;/div&gt;" style="edgeLabel;html=1;align=center;verticalAlign=middle;resizable=0;points=[];" vertex="1" connectable="0" parent="AfPHlgVxdCcqtdi9Rfbz-149">
          <mxGeometry x="-0.4114" y="2" relative="1" as="geometry">
            <mxPoint x="-61" y="2" as="offset" />
          </mxGeometry>
        </mxCell>
        <mxCell id="AfPHlgVxdCcqtdi9Rfbz-151" value="" style="endArrow=classic;html=1;rounded=0;" edge="1" parent="1">
          <mxGeometry width="50" height="50" relative="1" as="geometry">
            <mxPoint x="3491" y="760.5" as="sourcePoint" />
            <mxPoint x="3561" y="760.5" as="targetPoint" />
          </mxGeometry>
        </mxCell>
        <mxCell id="AfPHlgVxdCcqtdi9Rfbz-152" value="&lt;div&gt;&lt;span style=&quot;background-color: light-dark(#ffffff, var(--ge-dark-color, #121212)); color: light-dark(rgb(0, 0, 0), rgb(255, 255, 255));&quot;&gt;&lt;font style=&quot;font-size: 12px;&quot;&gt;0x1000-16&lt;/font&gt;&lt;/span&gt;&lt;/div&gt;&lt;div&gt;&lt;span style=&quot;font-family: quote-cjk-patch, Inter, system-ui, -apple-system, BlinkMacSystemFont, &amp;quot;Segoe UI&amp;quot;, Roboto, Oxygen, Ubuntu, Cantarell, &amp;quot;Open Sans&amp;quot;, &amp;quot;Helvetica Neue&amp;quot;, sans-serif; text-align: start; text-wrap-mode: wrap;&quot;&gt;&lt;font style=&quot;font-size: 8px;&quot;&gt;0xFF0&lt;/font&gt;&lt;/span&gt;&lt;span style=&quot;background-color: light-dark(#ffffff, var(--ge-dark-color, #121212)); color: light-dark(rgb(0, 0, 0), rgb(255, 255, 255));&quot;&gt;&lt;/span&gt;&lt;/div&gt;" style="edgeLabel;html=1;align=center;verticalAlign=middle;resizable=0;points=[];" vertex="1" connectable="0" parent="AfPHlgVxdCcqtdi9Rfbz-151">
          <mxGeometry x="-0.4114" y="2" relative="1" as="geometry">
            <mxPoint x="-61" y="2" as="offset" />
          </mxGeometry>
        </mxCell>
        <mxCell id="AfPHlgVxdCcqtdi9Rfbz-153" value="" style="endArrow=classic;html=1;rounded=0;" edge="1" parent="1">
          <mxGeometry width="50" height="50" relative="1" as="geometry">
            <mxPoint x="3481" y="673.3299999999999" as="sourcePoint" />
            <mxPoint x="3551" y="673.3299999999999" as="targetPoint" />
          </mxGeometry>
        </mxCell>
        <mxCell id="AfPHlgVxdCcqtdi9Rfbz-154" value="&lt;div&gt;&lt;span style=&quot;background-color: light-dark(#ffffff, var(--ge-dark-color, #121212)); color: light-dark(rgb(0, 0, 0), rgb(255, 255, 255));&quot;&gt;&lt;font style=&quot;font-size: 12px;&quot;&gt;0x1000-8&lt;/font&gt;&lt;/span&gt;&lt;/div&gt;&lt;div&gt;&lt;span style=&quot;font-family: quote-cjk-patch, Inter, system-ui, -apple-system, BlinkMacSystemFont, &amp;quot;Segoe UI&amp;quot;, Roboto, Oxygen, Ubuntu, Cantarell, &amp;quot;Open Sans&amp;quot;, &amp;quot;Helvetica Neue&amp;quot;, sans-serif; text-align: start; text-wrap-mode: wrap;&quot;&gt;&lt;font style=&quot;font-size: 8px;&quot;&gt;0xFF8&lt;/font&gt;&lt;/span&gt;&lt;span style=&quot;background-color: light-dark(#ffffff, var(--ge-dark-color, #121212)); color: light-dark(rgb(0, 0, 0), rgb(255, 255, 255));&quot;&gt;&lt;/span&gt;&lt;/div&gt;" style="edgeLabel;html=1;align=center;verticalAlign=middle;resizable=0;points=[];" vertex="1" connectable="0" parent="AfPHlgVxdCcqtdi9Rfbz-153">
          <mxGeometry x="-0.4114" y="2" relative="1" as="geometry">
            <mxPoint x="-61" y="2" as="offset" />
          </mxGeometry>
        </mxCell>
        <mxCell id="AfPHlgVxdCcqtdi9Rfbz-155" value="" style="endArrow=classic;html=1;rounded=0;entryX=1;entryY=0.75;entryDx=0;entryDy=0;strokeColor=#000000;" edge="1" parent="1">
          <mxGeometry width="50" height="50" relative="1" as="geometry">
            <mxPoint x="3794.5" y="718.1600000000001" as="sourcePoint" />
            <mxPoint x="3701.5" y="718.7850000000001" as="targetPoint" />
          </mxGeometry>
        </mxCell>
        <mxCell id="AfPHlgVxdCcqtdi9Rfbz-156" value="&lt;font style=&quot;color: rgb(0, 0, 0);&quot;&gt;X29 存储到sp+16&lt;/font&gt;" style="edgeLabel;html=1;align=center;verticalAlign=middle;resizable=0;points=[];strokeColor=#000000;" vertex="1" connectable="0" parent="AfPHlgVxdCcqtdi9Rfbz-155">
          <mxGeometry x="-0.0524" y="1" relative="1" as="geometry">
            <mxPoint x="1" y="-11" as="offset" />
          </mxGeometry>
        </mxCell>
        <mxCell id="AfPHlgVxdCcqtdi9Rfbz-157" value="" style="endArrow=classic;html=1;rounded=0;entryX=1;entryY=0.75;entryDx=0;entryDy=0;strokeColor=#000000;" edge="1" parent="1">
          <mxGeometry width="50" height="50" relative="1" as="geometry">
            <mxPoint x="3801" y="640" as="sourcePoint" />
            <mxPoint x="3708" y="640.625" as="targetPoint" />
          </mxGeometry>
        </mxCell>
        <mxCell id="AfPHlgVxdCcqtdi9Rfbz-158" value="&lt;font style=&quot;color: rgb(0, 0, 0);&quot;&gt;X30 存储到sp+16+8&amp;nbsp;&lt;/font&gt;" style="edgeLabel;html=1;align=center;verticalAlign=middle;resizable=0;points=[];strokeColor=#000000;" vertex="1" connectable="0" parent="AfPHlgVxdCcqtdi9Rfbz-157">
          <mxGeometry x="-0.0524" y="1" relative="1" as="geometry">
            <mxPoint x="1" y="-11" as="offset" />
          </mxGeometry>
        </mxCell>
        <mxCell id="AfPHlgVxdCcqtdi9Rfbz-159" value="" style="endArrow=classic;html=1;rounded=0;entryX=1;entryY=1;entryDx=0;entryDy=0;strokeColor=light-dark(#999999,#EDEDED);" edge="1" parent="1">
          <mxGeometry width="50" height="50" relative="1" as="geometry">
            <mxPoint x="3768" y="760" as="sourcePoint" />
            <mxPoint x="3708" y="760" as="targetPoint" />
          </mxGeometry>
        </mxCell>
        <mxCell id="AfPHlgVxdCcqtdi9Rfbz-160" value="&lt;font style=&quot;color: light-dark(rgb(153, 153, 153), rgb(237, 237, 237));&quot;&gt;FP_b&lt;/font&gt;" style="text;html=1;align=center;verticalAlign=middle;whiteSpace=wrap;rounded=0;" vertex="1" parent="1">
          <mxGeometry x="3768" y="740" width="60" height="30" as="geometry" />
        </mxCell>
        <mxCell id="AfPHlgVxdCcqtdi9Rfbz-161" value="" style="shape=curlyBracket;whiteSpace=wrap;html=1;rounded=1;flipH=1;labelPosition=right;verticalLabelPosition=middle;align=left;verticalAlign=middle;strokeColor=#97D077;size=0.5;" vertex="1" parent="1">
          <mxGeometry x="3698" y="760" width="23" height="180" as="geometry" />
        </mxCell>
        <mxCell id="AfPHlgVxdCcqtdi9Rfbz-162" value="&lt;font style=&quot;color: rgb(151, 208, 119);&quot;&gt;函数b栈区&lt;/font&gt;" style="text;html=1;align=center;verticalAlign=middle;whiteSpace=wrap;rounded=0;" vertex="1" parent="1">
          <mxGeometry x="3708" y="835" width="80" height="30" as="geometry" />
        </mxCell>
        <mxCell id="AfPHlgVxdCcqtdi9Rfbz-163" value="" style="endArrow=classic;html=1;rounded=0;entryX=1;entryY=0.5;entryDx=0;entryDy=0;exitX=0.073;exitY=0.48;exitDx=0;exitDy=0;exitPerimeter=0;" edge="1" parent="1" source="AfPHlgVxdCcqtdi9Rfbz-145" target="AfPHlgVxdCcqtdi9Rfbz-126">
          <mxGeometry width="50" height="50" relative="1" as="geometry">
            <mxPoint x="3470" y="1080" as="sourcePoint" />
            <mxPoint x="3520" y="1030" as="targetPoint" />
          </mxGeometry>
        </mxCell>
        <mxCell id="AfPHlgVxdCcqtdi9Rfbz-164" value="" style="endArrow=classic;html=1;rounded=0;fillColor=#FF3333;strokeColor=#FF3333;" edge="1" parent="1">
          <mxGeometry width="50" height="50" relative="1" as="geometry">
            <mxPoint x="3930" y="764.5" as="sourcePoint" />
            <mxPoint x="4110" y="764.5" as="targetPoint" />
          </mxGeometry>
        </mxCell>
        <mxCell id="AfPHlgVxdCcqtdi9Rfbz-165" value="&lt;font color=&quot;#ff3333&quot;&gt;&lt;span style=&quot;font-size: 14px;&quot;&gt;add sp,sp,#32&lt;/span&gt;&lt;/font&gt;" style="edgeLabel;html=1;align=center;verticalAlign=middle;resizable=0;points=[];" vertex="1" connectable="0" parent="AfPHlgVxdCcqtdi9Rfbz-164">
          <mxGeometry x="-0.5689" y="1" relative="1" as="geometry">
            <mxPoint x="51" y="-19" as="offset" />
          </mxGeometry>
        </mxCell>
        <mxCell id="AfPHlgVxdCcqtdi9Rfbz-166" value="" style="shape=curlyBracket;whiteSpace=wrap;html=1;rounded=1;flipH=1;labelPosition=right;verticalLabelPosition=middle;align=left;verticalAlign=middle;strokeColor=#97D077;size=0.5;" vertex="1" parent="1">
          <mxGeometry x="4380" y="480" width="20" height="110" as="geometry" />
        </mxCell>
        <mxCell id="AfPHlgVxdCcqtdi9Rfbz-167" value="" style="rounded=0;whiteSpace=wrap;html=1;" vertex="1" parent="1">
          <mxGeometry x="4260" y="480" width="120" height="110" as="geometry" />
        </mxCell>
        <mxCell id="AfPHlgVxdCcqtdi9Rfbz-168" value="" style="rounded=0;whiteSpace=wrap;html=1;" vertex="1" parent="1">
          <mxGeometry x="4260" y="940" width="120" height="120" as="geometry" />
        </mxCell>
        <mxCell id="AfPHlgVxdCcqtdi9Rfbz-169" value="" style="rounded=0;whiteSpace=wrap;html=1;" vertex="1" parent="1">
          <mxGeometry x="4260" y="420" width="120" height="60" as="geometry" />
        </mxCell>
        <mxCell id="AfPHlgVxdCcqtdi9Rfbz-170" value="" style="endArrow=classic;html=1;rounded=0;entryX=1;entryY=1;entryDx=0;entryDy=0;strokeColor=#FF3333;" edge="1" parent="1" target="AfPHlgVxdCcqtdi9Rfbz-169">
          <mxGeometry width="50" height="50" relative="1" as="geometry">
            <mxPoint x="4440" y="480" as="sourcePoint" />
            <mxPoint x="4550" y="500" as="targetPoint" />
          </mxGeometry>
        </mxCell>
        <mxCell id="AfPHlgVxdCcqtdi9Rfbz-171" value="&lt;font style=&quot;color: rgb(255, 51, 51);&quot;&gt;FP_a&lt;/font&gt;" style="text;html=1;align=center;verticalAlign=middle;whiteSpace=wrap;rounded=0;" vertex="1" parent="1">
          <mxGeometry x="4440" y="460" width="60" height="30" as="geometry" />
        </mxCell>
        <mxCell id="AfPHlgVxdCcqtdi9Rfbz-172" value="" style="endArrow=classic;html=1;rounded=0;entryX=1;entryY=1;entryDx=0;entryDy=0;strokeColor=light-dark(#FF3333,#FF3333);" edge="1" parent="1">
          <mxGeometry width="50" height="50" relative="1" as="geometry">
            <mxPoint x="4440" y="590" as="sourcePoint" />
            <mxPoint x="4380" y="590" as="targetPoint" />
          </mxGeometry>
        </mxCell>
        <mxCell id="AfPHlgVxdCcqtdi9Rfbz-173" value="&lt;font style=&quot;color: light-dark(rgb(255, 51, 51), rgb(255, 51, 51));&quot;&gt;SP_a&lt;/font&gt;" style="text;html=1;align=center;verticalAlign=middle;whiteSpace=wrap;rounded=0;" vertex="1" parent="1">
          <mxGeometry x="4440" y="570" width="60" height="30" as="geometry" />
        </mxCell>
        <mxCell id="AfPHlgVxdCcqtdi9Rfbz-174" value="&lt;font style=&quot;color: rgb(151, 208, 119);&quot;&gt;函数a栈区&lt;/font&gt;" style="text;html=1;align=center;verticalAlign=middle;whiteSpace=wrap;rounded=0;" vertex="1" parent="1">
          <mxGeometry x="4390" y="520" width="80" height="30" as="geometry" />
        </mxCell>
        <mxCell id="AfPHlgVxdCcqtdi9Rfbz-175" value="" style="rounded=0;whiteSpace=wrap;html=1;" vertex="1" parent="1">
          <mxGeometry x="4260" y="590" width="120" height="87.5" as="geometry" />
        </mxCell>
        <mxCell id="AfPHlgVxdCcqtdi9Rfbz-176" value="" style="endArrow=classic;html=1;rounded=0;" edge="1" parent="1">
          <mxGeometry width="50" height="50" relative="1" as="geometry">
            <mxPoint x="4170" y="940" as="sourcePoint" />
            <mxPoint x="4240" y="940" as="targetPoint" />
          </mxGeometry>
        </mxCell>
        <mxCell id="AfPHlgVxdCcqtdi9Rfbz-177" value="&lt;div&gt;&lt;span style=&quot;background-color: light-dark(#ffffff, var(--ge-dark-color, #121212)); color: light-dark(rgb(0, 0, 0), rgb(255, 255, 255));&quot;&gt;&lt;font style=&quot;font-size: 12px;&quot;&gt;0x1000-32&lt;/font&gt;&lt;/span&gt;&lt;/div&gt;&lt;div&gt;&lt;span style=&quot;font-family: quote-cjk-patch, Inter, system-ui, -apple-system, BlinkMacSystemFont, &amp;quot;Segoe UI&amp;quot;, Roboto, Oxygen, Ubuntu, Cantarell, &amp;quot;Open Sans&amp;quot;, &amp;quot;Helvetica Neue&amp;quot;, sans-serif; text-align: start; text-wrap-mode: wrap;&quot;&gt;&lt;font style=&quot;font-size: 8px;&quot;&gt;0xFE0&lt;/font&gt;&lt;/span&gt;&lt;span style=&quot;background-color: light-dark(#ffffff, var(--ge-dark-color, #121212)); color: light-dark(rgb(0, 0, 0), rgb(255, 255, 255));&quot;&gt;&lt;/span&gt;&lt;/div&gt;" style="edgeLabel;html=1;align=center;verticalAlign=middle;resizable=0;points=[];" vertex="1" connectable="0" parent="AfPHlgVxdCcqtdi9Rfbz-176">
          <mxGeometry x="-0.4114" y="2" relative="1" as="geometry">
            <mxPoint x="-61" y="2" as="offset" />
          </mxGeometry>
        </mxCell>
        <mxCell id="AfPHlgVxdCcqtdi9Rfbz-178" value="" style="endArrow=classic;html=1;rounded=0;entryX=1;entryY=1;entryDx=0;entryDy=0;strokeColor=#949494;" edge="1" parent="1">
          <mxGeometry width="50" height="50" relative="1" as="geometry">
            <mxPoint x="4449" y="940" as="sourcePoint" />
            <mxPoint x="4389" y="940" as="targetPoint" />
          </mxGeometry>
        </mxCell>
        <mxCell id="AfPHlgVxdCcqtdi9Rfbz-179" value="&lt;font style=&quot;color: rgb(148, 148, 148);&quot;&gt;SP_b&lt;/font&gt;" style="text;html=1;align=center;verticalAlign=middle;whiteSpace=wrap;rounded=0;" vertex="1" parent="1">
          <mxGeometry x="4440" y="920" width="60" height="30" as="geometry" />
        </mxCell>
        <mxCell id="AfPHlgVxdCcqtdi9Rfbz-180" value="" style="rounded=0;whiteSpace=wrap;html=1;" vertex="1" parent="1">
          <mxGeometry x="4260" y="675" width="120" height="87.5" as="geometry" />
        </mxCell>
        <mxCell id="AfPHlgVxdCcqtdi9Rfbz-181" value="" style="rounded=0;whiteSpace=wrap;html=1;" vertex="1" parent="1">
          <mxGeometry x="4260" y="760.5" width="120" height="87.5" as="geometry" />
        </mxCell>
        <mxCell id="AfPHlgVxdCcqtdi9Rfbz-182" value="" style="rounded=0;whiteSpace=wrap;html=1;" vertex="1" parent="1">
          <mxGeometry x="4260" y="845.5" width="120" height="94.5" as="geometry" />
        </mxCell>
        <mxCell id="AfPHlgVxdCcqtdi9Rfbz-183" value="" style="endArrow=classic;html=1;rounded=0;" edge="1" parent="1">
          <mxGeometry width="50" height="50" relative="1" as="geometry">
            <mxPoint x="4173" y="845.5" as="sourcePoint" />
            <mxPoint x="4243" y="845.5" as="targetPoint" />
          </mxGeometry>
        </mxCell>
        <mxCell id="AfPHlgVxdCcqtdi9Rfbz-184" value="&lt;div&gt;&lt;span style=&quot;background-color: light-dark(#ffffff, var(--ge-dark-color, #121212)); color: light-dark(rgb(0, 0, 0), rgb(255, 255, 255));&quot;&gt;&lt;font style=&quot;font-size: 12px;&quot;&gt;0x1000-24&lt;/font&gt;&lt;/span&gt;&lt;/div&gt;&lt;div&gt;&lt;span style=&quot;font-family: quote-cjk-patch, Inter, system-ui, -apple-system, BlinkMacSystemFont, &amp;quot;Segoe UI&amp;quot;, Roboto, Oxygen, Ubuntu, Cantarell, &amp;quot;Open Sans&amp;quot;, &amp;quot;Helvetica Neue&amp;quot;, sans-serif; text-align: start; text-wrap-mode: wrap;&quot;&gt;&lt;font style=&quot;font-size: 8px;&quot;&gt;0xFE8&lt;/font&gt;&lt;/span&gt;&lt;span style=&quot;background-color: light-dark(#ffffff, var(--ge-dark-color, #121212)); color: light-dark(rgb(0, 0, 0), rgb(255, 255, 255));&quot;&gt;&lt;/span&gt;&lt;/div&gt;" style="edgeLabel;html=1;align=center;verticalAlign=middle;resizable=0;points=[];" vertex="1" connectable="0" parent="AfPHlgVxdCcqtdi9Rfbz-183">
          <mxGeometry x="-0.4114" y="2" relative="1" as="geometry">
            <mxPoint x="-61" y="2" as="offset" />
          </mxGeometry>
        </mxCell>
        <mxCell id="AfPHlgVxdCcqtdi9Rfbz-185" value="" style="endArrow=classic;html=1;rounded=0;" edge="1" parent="1">
          <mxGeometry width="50" height="50" relative="1" as="geometry">
            <mxPoint x="4173" y="760.5" as="sourcePoint" />
            <mxPoint x="4243" y="760.5" as="targetPoint" />
          </mxGeometry>
        </mxCell>
        <mxCell id="AfPHlgVxdCcqtdi9Rfbz-186" value="&lt;div&gt;&lt;span style=&quot;background-color: light-dark(#ffffff, var(--ge-dark-color, #121212)); color: light-dark(rgb(0, 0, 0), rgb(255, 255, 255));&quot;&gt;&lt;font style=&quot;font-size: 12px;&quot;&gt;0x1000-16&lt;/font&gt;&lt;/span&gt;&lt;/div&gt;&lt;div&gt;&lt;span style=&quot;font-family: quote-cjk-patch, Inter, system-ui, -apple-system, BlinkMacSystemFont, &amp;quot;Segoe UI&amp;quot;, Roboto, Oxygen, Ubuntu, Cantarell, &amp;quot;Open Sans&amp;quot;, &amp;quot;Helvetica Neue&amp;quot;, sans-serif; text-align: start; text-wrap-mode: wrap;&quot;&gt;&lt;font style=&quot;font-size: 8px;&quot;&gt;0xFF0&lt;/font&gt;&lt;/span&gt;&lt;span style=&quot;background-color: light-dark(#ffffff, var(--ge-dark-color, #121212)); color: light-dark(rgb(0, 0, 0), rgb(255, 255, 255));&quot;&gt;&lt;/span&gt;&lt;/div&gt;" style="edgeLabel;html=1;align=center;verticalAlign=middle;resizable=0;points=[];" vertex="1" connectable="0" parent="AfPHlgVxdCcqtdi9Rfbz-185">
          <mxGeometry x="-0.4114" y="2" relative="1" as="geometry">
            <mxPoint x="-61" y="2" as="offset" />
          </mxGeometry>
        </mxCell>
        <mxCell id="AfPHlgVxdCcqtdi9Rfbz-187" value="" style="endArrow=classic;html=1;rounded=0;" edge="1" parent="1">
          <mxGeometry width="50" height="50" relative="1" as="geometry">
            <mxPoint x="4163" y="673.3299999999999" as="sourcePoint" />
            <mxPoint x="4233" y="673.3299999999999" as="targetPoint" />
          </mxGeometry>
        </mxCell>
        <mxCell id="AfPHlgVxdCcqtdi9Rfbz-188" value="&lt;div&gt;&lt;span style=&quot;background-color: light-dark(#ffffff, var(--ge-dark-color, #121212)); color: light-dark(rgb(0, 0, 0), rgb(255, 255, 255));&quot;&gt;&lt;font style=&quot;font-size: 12px;&quot;&gt;0x1000-8&lt;/font&gt;&lt;/span&gt;&lt;/div&gt;&lt;div&gt;&lt;span style=&quot;font-family: quote-cjk-patch, Inter, system-ui, -apple-system, BlinkMacSystemFont, &amp;quot;Segoe UI&amp;quot;, Roboto, Oxygen, Ubuntu, Cantarell, &amp;quot;Open Sans&amp;quot;, &amp;quot;Helvetica Neue&amp;quot;, sans-serif; text-align: start; text-wrap-mode: wrap;&quot;&gt;&lt;font style=&quot;font-size: 8px;&quot;&gt;0xFF8&lt;/font&gt;&lt;/span&gt;&lt;span style=&quot;background-color: light-dark(#ffffff, var(--ge-dark-color, #121212)); color: light-dark(rgb(0, 0, 0), rgb(255, 255, 255));&quot;&gt;&lt;/span&gt;&lt;/div&gt;" style="edgeLabel;html=1;align=center;verticalAlign=middle;resizable=0;points=[];" vertex="1" connectable="0" parent="AfPHlgVxdCcqtdi9Rfbz-187">
          <mxGeometry x="-0.4114" y="2" relative="1" as="geometry">
            <mxPoint x="-61" y="2" as="offset" />
          </mxGeometry>
        </mxCell>
        <mxCell id="AfPHlgVxdCcqtdi9Rfbz-189" value="" style="endArrow=classic;html=1;rounded=0;entryX=1;entryY=0.75;entryDx=0;entryDy=0;strokeColor=#000000;" edge="1" parent="1">
          <mxGeometry width="50" height="50" relative="1" as="geometry">
            <mxPoint x="4476.5" y="718.1600000000001" as="sourcePoint" />
            <mxPoint x="4383.5" y="718.7850000000001" as="targetPoint" />
          </mxGeometry>
        </mxCell>
        <mxCell id="AfPHlgVxdCcqtdi9Rfbz-190" value="&lt;font style=&quot;color: rgb(0, 0, 0);&quot;&gt;X29 存储到sp+16&lt;/font&gt;" style="edgeLabel;html=1;align=center;verticalAlign=middle;resizable=0;points=[];strokeColor=#000000;" vertex="1" connectable="0" parent="AfPHlgVxdCcqtdi9Rfbz-189">
          <mxGeometry x="-0.0524" y="1" relative="1" as="geometry">
            <mxPoint x="1" y="-11" as="offset" />
          </mxGeometry>
        </mxCell>
        <mxCell id="AfPHlgVxdCcqtdi9Rfbz-191" value="" style="endArrow=classic;html=1;rounded=0;entryX=1;entryY=0.75;entryDx=0;entryDy=0;strokeColor=#000000;" edge="1" parent="1">
          <mxGeometry width="50" height="50" relative="1" as="geometry">
            <mxPoint x="4483" y="640" as="sourcePoint" />
            <mxPoint x="4390" y="640.625" as="targetPoint" />
          </mxGeometry>
        </mxCell>
        <mxCell id="AfPHlgVxdCcqtdi9Rfbz-192" value="&lt;font style=&quot;color: rgb(0, 0, 0);&quot;&gt;X30 存储到sp+16+8&amp;nbsp;&lt;/font&gt;" style="edgeLabel;html=1;align=center;verticalAlign=middle;resizable=0;points=[];strokeColor=#000000;" vertex="1" connectable="0" parent="AfPHlgVxdCcqtdi9Rfbz-191">
          <mxGeometry x="-0.0524" y="1" relative="1" as="geometry">
            <mxPoint x="1" y="-11" as="offset" />
          </mxGeometry>
        </mxCell>
        <mxCell id="AfPHlgVxdCcqtdi9Rfbz-193" value="" style="endArrow=classic;html=1;rounded=0;entryX=1;entryY=1;entryDx=0;entryDy=0;strokeColor=light-dark(#999999,#EDEDED);" edge="1" parent="1">
          <mxGeometry width="50" height="50" relative="1" as="geometry">
            <mxPoint x="4450" y="760" as="sourcePoint" />
            <mxPoint x="4390" y="760" as="targetPoint" />
          </mxGeometry>
        </mxCell>
        <mxCell id="AfPHlgVxdCcqtdi9Rfbz-194" value="&lt;font style=&quot;color: light-dark(rgb(153, 153, 153), rgb(237, 237, 237));&quot;&gt;FP_b&lt;/font&gt;" style="text;html=1;align=center;verticalAlign=middle;whiteSpace=wrap;rounded=0;" vertex="1" parent="1">
          <mxGeometry x="4450" y="740" width="60" height="30" as="geometry" />
        </mxCell>
        <mxCell id="AfPHlgVxdCcqtdi9Rfbz-195" value="" style="shape=curlyBracket;whiteSpace=wrap;html=1;rounded=1;flipH=1;labelPosition=right;verticalLabelPosition=middle;align=left;verticalAlign=middle;strokeColor=#97D077;size=0.5;" vertex="1" parent="1">
          <mxGeometry x="4380" y="760" width="23" height="180" as="geometry" />
        </mxCell>
        <mxCell id="AfPHlgVxdCcqtdi9Rfbz-196" value="&lt;font style=&quot;color: rgb(151, 208, 119);&quot;&gt;函数b栈区&lt;/font&gt;" style="text;html=1;align=center;verticalAlign=middle;whiteSpace=wrap;rounded=0;" vertex="1" parent="1">
          <mxGeometry x="4390" y="835" width="80" height="30" as="geometry" />
        </mxCell>
        <mxCell id="AfPHlgVxdCcqtdi9Rfbz-197" value="sp=sp+32 即回到函数a的栈顶的位置" style="text;html=1;align=center;verticalAlign=middle;whiteSpace=wrap;rounded=0;" vertex="1" parent="1">
          <mxGeometry x="4210" y="1110" width="220" height="30" as="geometry" />
        </mxCell>
        <mxCell id="AfPHlgVxdCcqtdi9Rfbz-198" value="" style="endArrow=classic;html=1;rounded=0;fillColor=#FF3333;strokeColor=#FF3333;" edge="1" parent="1">
          <mxGeometry width="50" height="50" relative="1" as="geometry">
            <mxPoint x="4540" y="762" as="sourcePoint" />
            <mxPoint x="4720" y="762" as="targetPoint" />
          </mxGeometry>
        </mxCell>
        <mxCell id="AfPHlgVxdCcqtdi9Rfbz-199" value="&lt;font color=&quot;#ff3333&quot;&gt;&lt;span style=&quot;font-size: 14px;&quot;&gt;ret&lt;/span&gt;&lt;/font&gt;" style="edgeLabel;html=1;align=center;verticalAlign=middle;resizable=0;points=[];" vertex="1" connectable="0" parent="AfPHlgVxdCcqtdi9Rfbz-198">
          <mxGeometry x="-0.5689" y="1" relative="1" as="geometry">
            <mxPoint x="51" y="-19" as="offset" />
          </mxGeometry>
        </mxCell>
        <mxCell id="AfPHlgVxdCcqtdi9Rfbz-200" value="" style="shape=curlyBracket;whiteSpace=wrap;html=1;rounded=1;flipH=1;labelPosition=right;verticalLabelPosition=middle;align=left;verticalAlign=middle;strokeColor=#97D077;size=0.5;" vertex="1" parent="1">
          <mxGeometry x="4990" y="477.5" width="20" height="110" as="geometry" />
        </mxCell>
        <mxCell id="AfPHlgVxdCcqtdi9Rfbz-201" value="" style="rounded=0;whiteSpace=wrap;html=1;" vertex="1" parent="1">
          <mxGeometry x="4870" y="477.5" width="120" height="110" as="geometry" />
        </mxCell>
        <mxCell id="AfPHlgVxdCcqtdi9Rfbz-202" value="" style="rounded=0;whiteSpace=wrap;html=1;" vertex="1" parent="1">
          <mxGeometry x="4870" y="937.5" width="120" height="120" as="geometry" />
        </mxCell>
        <mxCell id="AfPHlgVxdCcqtdi9Rfbz-203" value="" style="rounded=0;whiteSpace=wrap;html=1;" vertex="1" parent="1">
          <mxGeometry x="4870" y="417.5" width="120" height="60" as="geometry" />
        </mxCell>
        <mxCell id="AfPHlgVxdCcqtdi9Rfbz-204" value="" style="endArrow=classic;html=1;rounded=0;entryX=1;entryY=1;entryDx=0;entryDy=0;strokeColor=#FF3333;" edge="1" parent="1" target="AfPHlgVxdCcqtdi9Rfbz-203">
          <mxGeometry width="50" height="50" relative="1" as="geometry">
            <mxPoint x="5050" y="477.5" as="sourcePoint" />
            <mxPoint x="5160" y="497.5" as="targetPoint" />
          </mxGeometry>
        </mxCell>
        <mxCell id="AfPHlgVxdCcqtdi9Rfbz-205" value="&lt;font style=&quot;color: rgb(255, 51, 51);&quot;&gt;FP_a&lt;/font&gt;" style="text;html=1;align=center;verticalAlign=middle;whiteSpace=wrap;rounded=0;" vertex="1" parent="1">
          <mxGeometry x="5050" y="457.5" width="60" height="30" as="geometry" />
        </mxCell>
        <mxCell id="AfPHlgVxdCcqtdi9Rfbz-206" value="" style="endArrow=classic;html=1;rounded=0;entryX=1;entryY=1;entryDx=0;entryDy=0;strokeColor=light-dark(#FF3333,#FF3333);" edge="1" parent="1">
          <mxGeometry width="50" height="50" relative="1" as="geometry">
            <mxPoint x="5050" y="587.5" as="sourcePoint" />
            <mxPoint x="4990" y="587.5" as="targetPoint" />
          </mxGeometry>
        </mxCell>
        <mxCell id="AfPHlgVxdCcqtdi9Rfbz-207" value="&lt;font style=&quot;color: light-dark(rgb(255, 51, 51), rgb(255, 51, 51));&quot;&gt;SP_a&lt;/font&gt;" style="text;html=1;align=center;verticalAlign=middle;whiteSpace=wrap;rounded=0;" vertex="1" parent="1">
          <mxGeometry x="5050" y="567.5" width="60" height="30" as="geometry" />
        </mxCell>
        <mxCell id="AfPHlgVxdCcqtdi9Rfbz-208" value="&lt;font style=&quot;color: rgb(151, 208, 119);&quot;&gt;函数a栈区&lt;/font&gt;" style="text;html=1;align=center;verticalAlign=middle;whiteSpace=wrap;rounded=0;" vertex="1" parent="1">
          <mxGeometry x="5000" y="517.5" width="80" height="30" as="geometry" />
        </mxCell>
        <mxCell id="AfPHlgVxdCcqtdi9Rfbz-209" value="" style="rounded=0;whiteSpace=wrap;html=1;" vertex="1" parent="1">
          <mxGeometry x="4870" y="587.5" width="120" height="87.5" as="geometry" />
        </mxCell>
        <mxCell id="AfPHlgVxdCcqtdi9Rfbz-210" value="" style="endArrow=classic;html=1;rounded=0;" edge="1" parent="1">
          <mxGeometry width="50" height="50" relative="1" as="geometry">
            <mxPoint x="4780" y="937.5" as="sourcePoint" />
            <mxPoint x="4850" y="937.5" as="targetPoint" />
          </mxGeometry>
        </mxCell>
        <mxCell id="AfPHlgVxdCcqtdi9Rfbz-211" value="&lt;div&gt;&lt;span style=&quot;background-color: light-dark(#ffffff, var(--ge-dark-color, #121212)); color: light-dark(rgb(0, 0, 0), rgb(255, 255, 255));&quot;&gt;&lt;font style=&quot;font-size: 12px;&quot;&gt;0x1000-32&lt;/font&gt;&lt;/span&gt;&lt;/div&gt;&lt;div&gt;&lt;span style=&quot;font-family: quote-cjk-patch, Inter, system-ui, -apple-system, BlinkMacSystemFont, &amp;quot;Segoe UI&amp;quot;, Roboto, Oxygen, Ubuntu, Cantarell, &amp;quot;Open Sans&amp;quot;, &amp;quot;Helvetica Neue&amp;quot;, sans-serif; text-align: start; text-wrap-mode: wrap;&quot;&gt;&lt;font style=&quot;font-size: 8px;&quot;&gt;0xFE0&lt;/font&gt;&lt;/span&gt;&lt;span style=&quot;background-color: light-dark(#ffffff, var(--ge-dark-color, #121212)); color: light-dark(rgb(0, 0, 0), rgb(255, 255, 255));&quot;&gt;&lt;/span&gt;&lt;/div&gt;" style="edgeLabel;html=1;align=center;verticalAlign=middle;resizable=0;points=[];" vertex="1" connectable="0" parent="AfPHlgVxdCcqtdi9Rfbz-210">
          <mxGeometry x="-0.4114" y="2" relative="1" as="geometry">
            <mxPoint x="-61" y="2" as="offset" />
          </mxGeometry>
        </mxCell>
        <mxCell id="AfPHlgVxdCcqtdi9Rfbz-212" value="" style="endArrow=classic;html=1;rounded=0;entryX=1;entryY=1;entryDx=0;entryDy=0;strokeColor=#949494;" edge="1" parent="1">
          <mxGeometry width="50" height="50" relative="1" as="geometry">
            <mxPoint x="5059" y="937.5" as="sourcePoint" />
            <mxPoint x="4999" y="937.5" as="targetPoint" />
          </mxGeometry>
        </mxCell>
        <mxCell id="AfPHlgVxdCcqtdi9Rfbz-213" value="&lt;font style=&quot;color: rgb(148, 148, 148);&quot;&gt;SP_b&lt;/font&gt;" style="text;html=1;align=center;verticalAlign=middle;whiteSpace=wrap;rounded=0;" vertex="1" parent="1">
          <mxGeometry x="5050" y="917.5" width="60" height="30" as="geometry" />
        </mxCell>
        <mxCell id="AfPHlgVxdCcqtdi9Rfbz-214" value="" style="rounded=0;whiteSpace=wrap;html=1;" vertex="1" parent="1">
          <mxGeometry x="4870" y="672.5" width="120" height="87.5" as="geometry" />
        </mxCell>
        <mxCell id="AfPHlgVxdCcqtdi9Rfbz-215" value="" style="rounded=0;whiteSpace=wrap;html=1;" vertex="1" parent="1">
          <mxGeometry x="4870" y="758" width="120" height="87.5" as="geometry" />
        </mxCell>
        <mxCell id="AfPHlgVxdCcqtdi9Rfbz-216" value="" style="rounded=0;whiteSpace=wrap;html=1;" vertex="1" parent="1">
          <mxGeometry x="4870" y="843" width="120" height="94.5" as="geometry" />
        </mxCell>
        <mxCell id="AfPHlgVxdCcqtdi9Rfbz-217" value="" style="endArrow=classic;html=1;rounded=0;" edge="1" parent="1">
          <mxGeometry width="50" height="50" relative="1" as="geometry">
            <mxPoint x="4783" y="843" as="sourcePoint" />
            <mxPoint x="4853" y="843" as="targetPoint" />
          </mxGeometry>
        </mxCell>
        <mxCell id="AfPHlgVxdCcqtdi9Rfbz-218" value="&lt;div&gt;&lt;span style=&quot;background-color: light-dark(#ffffff, var(--ge-dark-color, #121212)); color: light-dark(rgb(0, 0, 0), rgb(255, 255, 255));&quot;&gt;&lt;font style=&quot;font-size: 12px;&quot;&gt;0x1000-24&lt;/font&gt;&lt;/span&gt;&lt;/div&gt;&lt;div&gt;&lt;span style=&quot;font-family: quote-cjk-patch, Inter, system-ui, -apple-system, BlinkMacSystemFont, &amp;quot;Segoe UI&amp;quot;, Roboto, Oxygen, Ubuntu, Cantarell, &amp;quot;Open Sans&amp;quot;, &amp;quot;Helvetica Neue&amp;quot;, sans-serif; text-align: start; text-wrap-mode: wrap;&quot;&gt;&lt;font style=&quot;font-size: 8px;&quot;&gt;0xFE8&lt;/font&gt;&lt;/span&gt;&lt;span style=&quot;background-color: light-dark(#ffffff, var(--ge-dark-color, #121212)); color: light-dark(rgb(0, 0, 0), rgb(255, 255, 255));&quot;&gt;&lt;/span&gt;&lt;/div&gt;" style="edgeLabel;html=1;align=center;verticalAlign=middle;resizable=0;points=[];" vertex="1" connectable="0" parent="AfPHlgVxdCcqtdi9Rfbz-217">
          <mxGeometry x="-0.4114" y="2" relative="1" as="geometry">
            <mxPoint x="-61" y="2" as="offset" />
          </mxGeometry>
        </mxCell>
        <mxCell id="AfPHlgVxdCcqtdi9Rfbz-219" value="" style="endArrow=classic;html=1;rounded=0;" edge="1" parent="1">
          <mxGeometry width="50" height="50" relative="1" as="geometry">
            <mxPoint x="4783" y="758" as="sourcePoint" />
            <mxPoint x="4853" y="758" as="targetPoint" />
          </mxGeometry>
        </mxCell>
        <mxCell id="AfPHlgVxdCcqtdi9Rfbz-220" value="&lt;div&gt;&lt;span style=&quot;background-color: light-dark(#ffffff, var(--ge-dark-color, #121212)); color: light-dark(rgb(0, 0, 0), rgb(255, 255, 255));&quot;&gt;&lt;font style=&quot;font-size: 12px;&quot;&gt;0x1000-16&lt;/font&gt;&lt;/span&gt;&lt;/div&gt;&lt;div&gt;&lt;span style=&quot;font-family: quote-cjk-patch, Inter, system-ui, -apple-system, BlinkMacSystemFont, &amp;quot;Segoe UI&amp;quot;, Roboto, Oxygen, Ubuntu, Cantarell, &amp;quot;Open Sans&amp;quot;, &amp;quot;Helvetica Neue&amp;quot;, sans-serif; text-align: start; text-wrap-mode: wrap;&quot;&gt;&lt;font style=&quot;font-size: 8px;&quot;&gt;0xFF0&lt;/font&gt;&lt;/span&gt;&lt;span style=&quot;background-color: light-dark(#ffffff, var(--ge-dark-color, #121212)); color: light-dark(rgb(0, 0, 0), rgb(255, 255, 255));&quot;&gt;&lt;/span&gt;&lt;/div&gt;" style="edgeLabel;html=1;align=center;verticalAlign=middle;resizable=0;points=[];" vertex="1" connectable="0" parent="AfPHlgVxdCcqtdi9Rfbz-219">
          <mxGeometry x="-0.4114" y="2" relative="1" as="geometry">
            <mxPoint x="-61" y="2" as="offset" />
          </mxGeometry>
        </mxCell>
        <mxCell id="AfPHlgVxdCcqtdi9Rfbz-221" value="" style="endArrow=classic;html=1;rounded=0;" edge="1" parent="1">
          <mxGeometry width="50" height="50" relative="1" as="geometry">
            <mxPoint x="4773" y="670.8299999999999" as="sourcePoint" />
            <mxPoint x="4843" y="670.8299999999999" as="targetPoint" />
          </mxGeometry>
        </mxCell>
        <mxCell id="AfPHlgVxdCcqtdi9Rfbz-222" value="&lt;div&gt;&lt;span style=&quot;background-color: light-dark(#ffffff, var(--ge-dark-color, #121212)); color: light-dark(rgb(0, 0, 0), rgb(255, 255, 255));&quot;&gt;&lt;font style=&quot;font-size: 12px;&quot;&gt;0x1000-8&lt;/font&gt;&lt;/span&gt;&lt;/div&gt;&lt;div&gt;&lt;span style=&quot;font-family: quote-cjk-patch, Inter, system-ui, -apple-system, BlinkMacSystemFont, &amp;quot;Segoe UI&amp;quot;, Roboto, Oxygen, Ubuntu, Cantarell, &amp;quot;Open Sans&amp;quot;, &amp;quot;Helvetica Neue&amp;quot;, sans-serif; text-align: start; text-wrap-mode: wrap;&quot;&gt;&lt;font style=&quot;font-size: 8px;&quot;&gt;0xFF8&lt;/font&gt;&lt;/span&gt;&lt;span style=&quot;background-color: light-dark(#ffffff, var(--ge-dark-color, #121212)); color: light-dark(rgb(0, 0, 0), rgb(255, 255, 255));&quot;&gt;&lt;/span&gt;&lt;/div&gt;" style="edgeLabel;html=1;align=center;verticalAlign=middle;resizable=0;points=[];" vertex="1" connectable="0" parent="AfPHlgVxdCcqtdi9Rfbz-221">
          <mxGeometry x="-0.4114" y="2" relative="1" as="geometry">
            <mxPoint x="-61" y="2" as="offset" />
          </mxGeometry>
        </mxCell>
        <mxCell id="AfPHlgVxdCcqtdi9Rfbz-223" value="" style="endArrow=classic;html=1;rounded=0;entryX=1;entryY=0.75;entryDx=0;entryDy=0;strokeColor=#000000;" edge="1" parent="1">
          <mxGeometry width="50" height="50" relative="1" as="geometry">
            <mxPoint x="5086.5" y="715.6600000000001" as="sourcePoint" />
            <mxPoint x="4993.5" y="716.2850000000001" as="targetPoint" />
          </mxGeometry>
        </mxCell>
        <mxCell id="AfPHlgVxdCcqtdi9Rfbz-224" value="&lt;font style=&quot;color: rgb(0, 0, 0);&quot;&gt;X29 存储到sp+16&lt;/font&gt;" style="edgeLabel;html=1;align=center;verticalAlign=middle;resizable=0;points=[];strokeColor=#000000;" vertex="1" connectable="0" parent="AfPHlgVxdCcqtdi9Rfbz-223">
          <mxGeometry x="-0.0524" y="1" relative="1" as="geometry">
            <mxPoint x="1" y="-11" as="offset" />
          </mxGeometry>
        </mxCell>
        <mxCell id="AfPHlgVxdCcqtdi9Rfbz-225" value="" style="endArrow=classic;html=1;rounded=0;entryX=1;entryY=0.75;entryDx=0;entryDy=0;strokeColor=#000000;" edge="1" parent="1">
          <mxGeometry width="50" height="50" relative="1" as="geometry">
            <mxPoint x="5093" y="637.5" as="sourcePoint" />
            <mxPoint x="5000" y="638.125" as="targetPoint" />
          </mxGeometry>
        </mxCell>
        <mxCell id="AfPHlgVxdCcqtdi9Rfbz-226" value="&lt;font style=&quot;color: rgb(0, 0, 0);&quot;&gt;X30 存储到sp+16+8&amp;nbsp;&lt;/font&gt;" style="edgeLabel;html=1;align=center;verticalAlign=middle;resizable=0;points=[];strokeColor=#000000;" vertex="1" connectable="0" parent="AfPHlgVxdCcqtdi9Rfbz-225">
          <mxGeometry x="-0.0524" y="1" relative="1" as="geometry">
            <mxPoint x="1" y="-11" as="offset" />
          </mxGeometry>
        </mxCell>
        <mxCell id="AfPHlgVxdCcqtdi9Rfbz-227" value="" style="endArrow=classic;html=1;rounded=0;entryX=1;entryY=1;entryDx=0;entryDy=0;strokeColor=light-dark(#999999,#EDEDED);" edge="1" parent="1">
          <mxGeometry width="50" height="50" relative="1" as="geometry">
            <mxPoint x="5060" y="757.5" as="sourcePoint" />
            <mxPoint x="5000" y="757.5" as="targetPoint" />
          </mxGeometry>
        </mxCell>
        <mxCell id="AfPHlgVxdCcqtdi9Rfbz-228" value="&lt;font style=&quot;color: light-dark(rgb(153, 153, 153), rgb(237, 237, 237));&quot;&gt;FP_b&lt;/font&gt;" style="text;html=1;align=center;verticalAlign=middle;whiteSpace=wrap;rounded=0;" vertex="1" parent="1">
          <mxGeometry x="5060" y="737.5" width="60" height="30" as="geometry" />
        </mxCell>
        <mxCell id="AfPHlgVxdCcqtdi9Rfbz-229" value="" style="shape=curlyBracket;whiteSpace=wrap;html=1;rounded=1;flipH=1;labelPosition=right;verticalLabelPosition=middle;align=left;verticalAlign=middle;strokeColor=#97D077;size=0.5;" vertex="1" parent="1">
          <mxGeometry x="4990" y="757.5" width="23" height="180" as="geometry" />
        </mxCell>
        <mxCell id="AfPHlgVxdCcqtdi9Rfbz-230" value="&lt;font style=&quot;color: rgb(151, 208, 119);&quot;&gt;函数b栈区&lt;/font&gt;" style="text;html=1;align=center;verticalAlign=middle;whiteSpace=wrap;rounded=0;" vertex="1" parent="1">
          <mxGeometry x="5000" y="832.5" width="80" height="30" as="geometry" />
        </mxCell>
        <mxCell id="AfPHlgVxdCcqtdi9Rfbz-231" value="stp指令中x30 存储了函数a的返回地址 0x2000到0x1000-16的位置&lt;div&gt;ldp中从0x1000-16的位置读取值到x30寄存器中&lt;/div&gt;&lt;div&gt;到这里 ret 就是从0x2000的这个位置继续执行&lt;br&gt;&lt;div&gt;&lt;br&gt;&lt;/div&gt;&lt;/div&gt;" style="text;html=1;align=left;verticalAlign=middle;whiteSpace=wrap;rounded=0;" vertex="1" parent="1">
          <mxGeometry x="4712" y="1103.75" width="360" height="82.5" as="geometry" />
        </mxCell>
        <mxCell id="AfPHlgVxdCcqtdi9Rfbz-232" value="&lt;b&gt;&lt;font style=&quot;font-size: 18px;&quot;&gt;入栈操作&lt;/font&gt;&lt;/b&gt;" style="text;html=1;align=center;verticalAlign=middle;whiteSpace=wrap;rounded=0;" vertex="1" parent="1">
          <mxGeometry x="1580" y="370" width="110" height="30" as="geometry" />
        </mxCell>
      </root>
    </mxGraphModel>
  </diagram>
</mxfile>
